<?xml version="1.0" standalone="no"?>
<!DOCTYPE svg PUBLIC "-//W3C//DTD SVG 20010904//EN"
 "http://www.w3.org/TR/2001/REC-SVG-20010904/DTD/svg10.dtd">
<svg version="1.0" xmlns="http://www.w3.org/2000/svg"
 width="144.000000pt" height="105.000000pt" viewBox="0 0 144.000000 105.000000"
 preserveAspectRatio="xMidYMid meet">
<metadata>
Created by potrace 1.13, written by Peter Selinger 2001-2015
</metadata>
<g transform="translate(0.000000,105.000000) scale(0.100000,-0.100000)"
fill="#000000" stroke="none">
<path d="M417 853 c-4 -3 -7 -57 -7 -120 l0 -113 -95 0 -95 0 0 -130 0 -130
50 0 50 0 0 75 0 75 45 0 45 0 0 -95 0 -95 50 0 50 0 0 -100 c0 -93 -1 -100
-20 -100 -17 0 -20 -7 -20 -50 l0 -50 100 0 100 0 0 50 c0 43 -3 50 -20 50
-19 0 -20 7 -20 100 l0 100 85 0 85 0 0 -100 c0 -93 -1 -100 -20 -100 -17 0
-20 -7 -20 -50 l0 -50 100 0 100 0 0 50 c0 43 -3 50 -20 50 -19 0 -20 7 -20
100 l0 100 50 0 50 0 0 95 0 95 45 0 45 0 0 -75 0 -75 50 0 50 0 0 130 0 130
-95 0 -94 0 -3 118 -3 117 -296 3 c-162 1 -298 -1 -302 -5z m238 -226 c27 -65
-31 -128 -98 -105 -63 23 -66 117 -4 143 42 18 85 2 102 -38z m270 0 c27 -65
-31 -128 -98 -105 -63 23 -66 117 -4 143 42 18 85 2 102 -38z"/>
<path d="M234 336 c-70 -31 -64 -141 8 -165 25 -8 43 -8 67 0 72 25 76 136 5
165 -40 17 -41 17 -80 0z"/>
<path d="M1114 336 c-70 -31 -64 -141 8 -165 25 -8 43 -8 67 0 72 25 76 136 5
165 -40 17 -41 17 -80 0z"/>
</g>
</svg>
