<?xml version="1.0" encoding="UTF-8" standalone="no"?>
<svg
   xmlns:dc="http://purl.org/dc/elements/1.1/"
   xmlns:cc="http://creativecommons.org/ns#"
   xmlns:rdf="http://www.w3.org/1999/02/22-rdf-syntax-ns#"
   xmlns:svg="http://www.w3.org/2000/svg"
   xmlns="http://www.w3.org/2000/svg"
   xmlns:sodipodi="http://sodipodi.sourceforge.net/DTD/sodipodi-0.dtd"
   xmlns:inkscape="http://www.inkscape.org/namespaces/inkscape"
   version="1.0"
   width="372.5"
   height="322.5"
   viewBox="0 0 298 258"
   preserveAspectRatio="xMidYMid meet"
   id="svg2"
   inkscape:version="0.48.4 r9939"
   sodipodi:docname="svgout.svg">
  <defs
     id="defs212" />
  <sodipodi:namedview
     pagecolor="#ffffff"
     bordercolor="#666666"
     borderopacity="1"
     objecttolerance="10"
     gridtolerance="10"
     guidetolerance="10"
     inkscape:pageopacity="0"
     inkscape:pageshadow="2"
     inkscape:window-width="1920"
     inkscape:window-height="1053"
     id="namedview210"
     showgrid="false"
     inkscape:zoom="1.2671141"
     inkscape:cx="87.876983"
     inkscape:cy="270.33435"
     inkscape:window-x="0"
     inkscape:window-y="0"
     inkscape:window-maximized="1"
     inkscape:current-layer="g6" />
  <metadata
     id="metadata4">
Created by potrace 1.11, written by Peter Selinger 2001-2013
<rdf:RDF>
  <cc:Work
     rdf:about="">
    <dc:format>image/svg+xml</dc:format>
    <dc:type
       rdf:resource="http://purl.org/dc/dcmitype/StillImage" />
  </cc:Work>
</rdf:RDF>
</metadata>
  <g
     transform="matrix(0.1,0,0,-0.1,0,258)"
     id="g6"
     style="fill:#ff0000;stroke:none">
    <path
       d="m 222.76461,1019.8233 c 3.4154,-1.1554 10.006,-18.0244 15.4412,-38.30886 4.4693,-20.54326 13.3199,-41.9831 19.7024,-46.48456 6.6414,-5.46738 11.9379,-17.50678 10.1448,-26.26946 -0.8273,-8.50387 3.8822,-14.48889 8.7119,-13.1948 5.7955,1.55292 11.0227,-6.36396 10.9719,-17.7656 -0.051,-11.40164 3.7622,-21.76801 9.3683,-23.37169 4.6401,-1.8625 16.3192,-18.40336 25.3593,-36.6866 9.2989,-19.24916 21.7544,-38.6878 29.3616,-43.89636 6.6414,-5.46739 11.1614,-14.60901 8.8507,-21.43984 -1.6037,-5.60609 1.6222,-9.91808 6.4519,-8.62398 5.7955,1.55291 12.9545,-5.84633 15.5427,-15.50558 2.847,-10.62519 9.8165,-21.18102 16.3886,-22.52589 5.606,-1.60368 13.5415,-11.90069 16.3885,-22.52588 2.5882,-9.65925 8.7813,-17.31731 14.5768,-15.7644 4.8297,1.2941 11.9887,-6.10514 14.8357,-16.73032 2.847,-10.62519 9.04,-18.28324 14.8356,-16.73033 4.8296,1.2941 11.9886,-6.10514 14.8356,-16.73032 2.8471,-10.62519 9.0401,-18.28325 14.8357,-16.73033 4.8296,1.29409 11.471,-4.17329 13.2827,-10.93477 2.0706,-7.72741 17.6133,-23.23299 35.0186,-34.09841 17.4052,-10.86542 32.6891,-25.40507 34.242,-31.20063 1.8118,-6.76148 10.6438,-12.67715 19.4065,-14.4703 8.5039,-0.82723 17.8535,-8.67475 20.1829,-17.36809 2.5882,-9.65925 9.419,-11.97004 16.37,-7.00171 8.6239,6.45189 12.8158,2.39872 15.5427,-15.50558 3.5034,-20.80208 5.694,-21.25037 15.6629,-8.22647 8.2958,11.54035 11.1936,12.3168 8.4345,3.2953 -2.3108,-6.83083 0.7257,-14.29942 7.5565,-16.61021 6.8308,-2.31079 9.6085,-8.81345 8.2636,-15.38546 -3.0179,-8.05558 2.3294,-8.69333 15.0759,-2.17209 11.5218,7.22835 17.835,6.84941 17.0077,-1.65445 -0.3789,-6.31319 17.8028,-20.07639 40.2965,-30.61364 22.4937,-10.53725 43.1249,-25.71466 45.1954,-33.44207 3.1059,-11.59111 5.0377,-11.07347 16.6796,3.434 7.5887,10.31559 11.1936,12.3168 9.1416,4.52004 -2.3108,-6.83083 0.7257,-14.29942 7.5565,-16.61021 6.8309,-2.31079 9.6085,-8.81345 8.2637,-15.38546 -2.3108,-6.83084 3.2259,-4.31199 14.23,4.84821 9.7794,9.86731 18.2139,13.16261 18.2833,9.04008 2.6068,-25.18342 11.9564,-33.03095 28.049,-23.54257 8.8828,5.48597 17.8349,6.84941 17.9043,2.72689 2.9857,-18.87023 11.8871,-28.90843 23.4782,-25.8026 6.7615,1.81173 26.9952,-4.15471 45.1075,-13.79538 18.11239,-9.64068 39.31199,-15.3483 47.03939,-13.27775 6.7615,1.81173 14.5582,-0.24024 16.1111,-6.03579 1.2941,-4.82963 11.2815,-7.32989 21.9067,-4.48288 10.6252,2.84701 20.8715,-0.61917 22.942,-8.34658 2.3294,-8.69333 9.8673,-9.77937 21.6479,-3.51695 9.8487,5.74479 19.3185,5.17638 20.8714,-0.61917 1.5529,-5.79556 9.6085,-8.81345 17.3359,-6.7429 7.7274,2.07055 31.0484,0.0372 51.282,-5.92928 26.5469,-6.34538 41.8122,-5.36087 50.6257,4.24762 8.3652,7.41782 14.8678,10.19548 15.196,5.10703 1.8997,-26.40817 10.214,-30.39199 31.0669,-15.487 13.9019,9.93666 24.5271,12.78367 30.4613,6.09154 6.6414,-5.46738 4.9684,-6.95095 -5.0191,-4.45069 -9.0215,2.75908 -11.6604,1.01669 -5.0191,-4.45069 5.4167,-4.76028 14.8864,-5.32869 21.8374,-0.36036 6.6921,5.93426 16.6796,3.434 22.6138,-3.25813 5.2272,-7.91687 15.9217,-9.19239 26.7363,-3.18878 8.8828,5.48597 18.0938,5.88349 19.1291,2.01978 1.2941,-4.82963 20.9408,-4.74169 42.45,-0.0136 22.2163,5.95284 46.2443,5.14419 52.1785,-1.54794 10.8333,-9.52055 13.5923,-0.49905 5.777,17.07708 -2.0012,3.60489 8.1757,4.26123 21.5785,0.60557 14.11,-2.4309 32.7908,-2.60179 40.9665,1.65943 9.4004,3.55412 17.6454,3.69282 18.9395,-1.13681 1.0353,-3.8637 26.2187,-1.25693 55.1965,6.50764 28.9778,7.76457 46.5539,15.57991 38.7572,17.63188 -7.7968,2.05197 -8.8321,5.91567 -4.0024,7.20977 5.7955,1.55291 21.1302,-1.5851 34.7919,-6.20668 16.1111,-6.03579 26.288,-5.37945 28.34,2.41731 2.3108,6.83083 13.3842,11.86851 25.0447,10.85181 14.5582,-0.24023 17.9043,2.7269 12.2289,8.4531 -12.3168,11.19359 24.5964,8.66115 38.1379,-3.23955 6.9002,-6.43331 9.5392,-4.69093 7.4686,3.03648 -1.8117,6.76148 13.5738,15.02511 42.8104,21.82375 33.1003,7.83392 44.8808,14.09635 40.3608,23.23797 -2.7777,6.50266 -0.6563,10.1769 8.3652,7.41782 19.2677,-6.22526 78.1892,9.5627 75.601,19.22196 -1.2941,4.82963 9.7794,9.86731 24.0788,10.593 18.1631,1.76096 23.441,5.24573 16.9891,13.86971 -6.4519,8.62398 -1.881,10.88401 17.3174,8.78127 17.0077,-1.65445 27.6329,1.19256 29.6848,8.98931 1.3449,6.57202 12.1596,12.57562 22.5953,12.26604 11.4016,-0.0508 18.6114,3.95163 17.0585,9.74719 -1.5529,5.79555 6.6227,10.05677 17.0585,9.74719 12.3675,0.20805 20.9915,6.65994 21.5599,16.12973 1.7932,8.76268 9.1924,15.92168 17.9551,14.12853 8.5039,-0.82722 16.4207,4.39993 18.7315,11.23076 3.0179,8.05557 -0.1387,8.24504 -6.572,1.34486 -7.3992,-7.159 -9.5899,-6.71071 -6.572,1.34487 1.7931,8.76268 12.4183,11.60969 29.4261,9.95524 25.5115,-2.48168 29.7542,4.86679 19.1612,28.94559 -2.0012,3.60488 6.9509,4.96833 19.129,2.01978 14.3688,-3.39683 21.1303,-1.5851 19.3186,5.17638 -1.2941,4.82963 3.2073,11.21217 9.9688,13.0239 20.2844,5.4352 67.3188,50.13159 60.4186,56.5649 -3.933,3.08725 3.0179,8.05558 14.609,11.16141 12.8159,2.39872 19.2492,9.2989 15.2468,16.50867 -3.0365,7.46859 -0.9151,11.14282 6.8816,9.09085 13.6617,-4.62158 44.2939,20.15072 80.8926,65.15669 13.0561,16.95696 28.8205,31.53378 33.6501,32.82788 5.7955,1.55291 11.7112,10.38495 12.2796,19.85474 1.5343,9.7286 8.9336,16.88761 17.6963,15.09445 9.4698,-0.5684 14.4889,3.88229 12.1595,12.57562 -2.0706,7.72741 1.9133,16.0418 9.6407,18.11236 7.7274,2.07055 13.643,10.90258 15.4362,19.66526 0.8272,8.50387 7.7088,17.59472 16.4021,19.92409 7.7275,2.07055 12.6772,10.64377 10.6066,18.37117 -2.0705,7.72741 2.8792,16.30063 10.6067,18.37118 7.7274,2.07055 13.1947,8.71191 11.9006,13.54154 -1.5529,5.79556 5.777,17.07708 16.074,25.01254 18.2139,13.1626 18.921,14.38735 0.3096,10.43571 -17.6455,-3.69281 -17.9043,-2.72689 0.051,11.40164 11.263,8.19428 16.9198,17.99224 11.5032,22.75252 -4.4507,5.0191 -0.8458,7.0203 7.6581,6.19307 11.6604,-1.01669 15.4548,4.14111 12.8666,13.80037 -2.3294,8.69333 1.6544,17.00772 9.3818,19.07828 7.7274,2.07058 13.3149,15.99108 13.2964,31.51518 -0.6056,21.5786 1.5157,25.2528 12.3489,15.7322 9.6085,-8.8134 11.0227,-6.3639 6.364,11.0227 -3.3646,12.5571 0.1015,22.8033 9.7608,25.3915 7.7274,2.0706 11.5218,7.2284 6.364,11.0227 -4.1919,4.0532 -2.2093,15.9725 3.4476,25.7704 5.398,10.7639 9.3125,23.2008 7.7596,28.9964 -1.2941,4.8296 3.8451,16.5594 12.2102,23.9772 7.1405,8.125 9.7101,13.9899 4.8804,12.6958 -4.8296,-1.2941 -4.7095,5.985 -0.019,15.5241 13.1069,28.3586 30.5208,117.9173 20.7414,108.05 -4.0532,-4.1919 -4.6402,1.8625 -0.019,15.5242 3.6556,13.4028 10.0196,24.4255 13.8833,25.4608 3.8637,1.0353 3.2767,7.0896 -1.6916,14.0406 -4.9683,6.9509 -5.3659,16.1619 -0.6056,21.5785 5.0191,4.4507 6.7429,17.3359 3.8959,27.9611 -2.5882,9.6593 -1.0539,19.3879 3.7758,20.682 4.8296,1.2941 4.6909,9.5391 -1.0539,19.3879 -5.4859,8.8828 -5.694,21.2503 -1.6408,25.4422 5.0191,4.4507 3.8451,16.5594 -1.8997,26.4082 -5.7448,9.8487 -6.1423,19.0597 -2.2786,20.0949 4.8296,1.2941 4.2934,18.7501 -1.1418,39.0346 -5.1764,19.3185 -9.6456,39.8618 -8.042,45.4678 1.7932,8.7627 -34.5108,148.1149 -40.1863,153.8411 -3.933,3.0872 -33.5213,74.8753 -40.6989,97.7987 -4.0718,11.3323 -9.5577,20.2151 -14.3874,18.921 -3.8637,-1.0353 -8.832,5.9157 -11.4202,15.5749 -2.5882,9.6593 -14.9743,24.9754 -27.0323,35.2031 -16.2499,14.2808 -18.2511,17.8857 -6.073,14.9372 12.1781,-2.9486 12.8852,-1.7238 -0.587,6.0543 -7.6073,5.2086 -17.0263,17.1786 -19.6145,26.8379 -2.5882,9.6593 -9.4883,16.0926 -14.318,14.7985 -5.7955,-1.5529 -11.9886,6.1051 -14.5768,15.7644 -2.5882,9.6592 -12.4555,19.4386 -21.9253,20.007 -8.5038,0.8272 -15.1452,6.2946 -13.5415,11.9007 1.6037,5.6061 -3.813,10.3664 -12.5756,12.1595 -8.5039,0.8273 -17.5948,7.7089 -19.9241,16.4022 -2.0706,7.7274 -8.7119,13.1948 -13.5416,11.9007 -5.7955,-1.5529 -15.5935,4.1039 -20.8206,12.0208 -16.6474,23.4918 -55.5111,41.0308 -65.2904,31.1635 -4.7603,-5.4166 -6.951,-4.9684 -5.6061,1.6036 4.811,16.8183 -56.6851,53.1396 -71.2941,41.9782 -6.9509,-4.9684 -13.0053,-5.5553 -14.0406,-1.6916 -2.5374,21.0609 -11.6282,27.9425 -45.6437,31.2514 -20.4231,2.8098 -38.2073,7.362 -39.5014,12.1917 -1.0353,3.8637 -8.832,5.9156 -16.5594,3.8451 -7.7275,-2.0706 -31.0484,-0.037 -51.282,5.9293 -26.5469,6.3453 -41.8123,5.3608 -50.6257,-4.2477 -10.7453,-10.1261 -14.8678,-10.1954 -15.5242,-0.019 -0.1387,8.2451 -7.9354,10.2971 -20.9408,4.7417 -11.0734,-5.0376 -23.441,-5.2457 -27.8917,-0.2266 -4.1919,4.0532 -16.3006,2.8792 -26.1493,-2.8656 -10.8147,-6.0036 -19.3186,-5.1764 -20.8715,0.6192 -1.8117,6.7615 -7.159,7.3992 -11.2121,3.2074 -4.7603,-5.4167 -4.8804,-12.6958 -0.6886,-16.7489 5.1578,-3.7944 -3.7943,-5.1578 -18.8702,-2.9858 -21.9067,4.4829 -30.3412,1.1876 -41.0172,-13.061 -6.6227,-10.0568 -11.1936,-12.3168 -9.1416,-4.5201 2.3108,6.8309 -0.7257,14.2994 -7.5565,16.6102 -5.6061,1.6037 -9.9181,-1.6222 -8.3652,-7.4178 1.5529,-5.7955 -5.1392,-11.7298 -15.0573,-13.3521 -28.7883,-4.6079 -41.276,-12.0951 -34.3758,-18.5284 2.9672,-3.3461 -2.5002,-9.9874 -14.0913,-13.0933 -13.9713,-5.8141 -17.3867,-4.6587 -9.2804,3.725 6.4333,6.9002 5.8464,12.9546 -0.9845,15.2654 -5.6061,1.6037 -12.2982,-4.3306 -12.8666,-13.8004 -0.5684,-9.4698 -7.9676,-16.6288 -16.4715,-15.8016 -7.5379,1.0861 -17.6455,-3.6928 -21.181,-9.8165 -4.2427,-7.3485 -23.233,-17.6133 -42.2927,-23.7556 -20.0256,-6.4011 -32.9616,-16.079 -31.1499,-22.8404 1.8118,-6.7615 -5.3287,-14.8865 -15.9538,-17.7335 -10.6252,-2.847 -18.2833,-9.04 -16.7304,-14.8356 1.2941,-4.8296 9.5392,-4.6909 17.4561,0.5362 12.2288,8.4531 13.4536,7.746 4.8989,-2.8284 -5.4674,-6.6414 -18.4727,-12.1967 -28.6496,-12.853 -19.6467,-0.088 -63.247,-61.4639 -54.0175,-76.5905 3.4848,-5.278 -2.5696,-5.865 -12.3676,-0.2081 -15.1452,6.2946 -18.043,5.5182 -14.4195,-8.0048 2.3294,-8.6933 -0.6885,-16.7489 -6.4841,-18.3018 -4.8296,-1.2941 -5.2085,-7.6073 0.2081,-12.3676 6.9002,-6.4333 4.0024,-7.2098 -9.9181,-1.6223 -10.7639,5.3981 -18.043,5.5182 -15.783,0.9474 2.26,-4.5708 3.434,-16.6796 1.1926,-27.6329 -1.9133,-16.0418 -5.5182,-18.043 -15.1267,-9.2296 -9.0908,6.8816 -9.5391,4.6909 -2.2414,-10.9533 6.0036,-10.8147 6.1423,-19.0597 1.5021,-17.1972 -12.4369,3.9144 -55.5704,-70.795 -45.9619,-79.6084 3.9331,-3.0873 -2.3108,-6.8309 -13.7124,-6.7801 -14.5583,0.2402 -19.3185,-5.1764 -16.4715,-15.8016 2.3293,-8.6933 -2.6204,-17.2665 -10.3478,-19.3371 -7.7274,-2.0705 -12.6772,-10.6437 -10.6066,-18.3711 2.3293,-8.6934 -2.1028,-19.1984 -9.0537,-24.1668 -6.6921,-5.9342 -11.3831,-15.4734 -9.3125,-23.2008 2.0705,-7.7274 -3.138,-15.3347 -10.8654,-17.4052 -7.7274,-2.0706 -13.4536,-7.746 -11.9007,-13.5416 1.2941,-4.8296 -10.1398,-31.7046 -25.6961,-58.649 -15.5564,-26.9444 -33.1139,-50.2839 -37.9435,-51.578 -5.7956,-1.5529 -7.8476,-9.3497 -5.777,-17.0771 2.0705,-7.7274 -3.8451,-16.5594 -13.5044,-19.1476 -12.557,-3.3647 -13.0053,-5.5553 -0.5684,-9.4698 11.471,-4.1733 8.6426,-9.0723 -12.2796,-19.8547 -15.6443,-7.2977 -28.5109,-21.0981 -29.3382,-29.602 -0.8272,-8.5038 -7.9676,-16.6288 -15.695,-18.6993 -6.7615,-1.8118 -14.609,-11.1614 -15.1774,-20.6312 -1.2755,-10.6945 -7.9677,-16.6288 -18.6622,-15.3533 -13.8511,1.465 -15.0065,-1.9504 -7.2605,-15.404 8.2636,-15.3855 6.5906,-16.8691 -15.5056,-15.5428 -19.1984,2.1028 -24.7352,-0.4161 -21.8881,-11.0413 1.8117,-6.7614 -5.777,-17.077 -17.8164,-22.3735 -11.0735,-5.0377 -17.9551,-14.1286 -15.4363,-19.6653 4.2613,-8.1757 -1.2755,-10.6945 -20.4739,-8.5918 -14.817,1.2062 -25.701,-0.6749 -24.4069,-5.5046 1.2941,-4.8296 -5.8463,-12.9545 -15.6951,-18.6993 -9.8487,-5.7448 -16.869,-6.5906 -15.2653,-0.9845 1.8625,4.6401 -18.9396,1.1368 -44.2431,-8.7491 -28.4602,-9.6964 -48.2963,-12.9409 -49.8492,-7.1454 -1.553,5.7956 -8.8321,5.9157 -15.783,0.9474 -6.6922,-5.9343 -22.2163,-5.9529 -32.7214,-1.5208 -16.6288,7.9677 -17.5947,7.7089 -8.9521,-1.3634 9.6085,-8.8135 6.9695,-10.5559 -11.7806,-6.2624 -12.4369,3.9144 -24.4256,10.0196 -25.7197,14.8492 -1.5529,5.7956 -9.3496,7.8475 -17.077,5.777 -8.6934,-2.3294 -19.1984,2.1027 -24.1668,9.0537 -5.9342,6.6921 -14.5074,11.6418 -21.2689,9.8301 -5.7956,-1.5529 -25.581,6.6042 -44.4698,19.1427 -17.664,11.8313 -34.7411,17.6083 -37.5695,12.7093 -1.8625,-4.6402 -5.278,-3.4848 -4.6402,1.8625 -0.795,18.4219 -24.2039,40.102 -33.0173,30.4935 -4.0532,-4.1919 -6.2439,-3.7436 -4.6402,1.8625 1.3449,6.572 -5.9528,22.2163 -17.8214,35.6006 -29.4818,36.6172 -45.8703,59.1431 -49.6833,69.5095 -2.5188,5.5367 -9.4883,16.0925 -15.6814,23.7506 -6.1931,7.6581 -10.2648,18.9903 -8.92,25.5624 2.5696,5.8649 -1.1739,12.1087 -5.8141,13.9712 -12.1781,2.9486 -37.6811,105.8543 -30.8688,119.0677 3.0872,3.9331 2.3615,18.2325 -1.0031,30.7895 -3.3647,12.557 -2.0891,23.2516 3.7064,24.8045 4.8296,1.2941 4.9498,8.5732 -0.019,15.5242 -5.9342,6.6921 -3.434,16.6795 4.2241,22.8726 7.9169,5.2271 12.6078,14.7663 10.7961,21.5278 -3.3647,12.557 28.0068,65.4798 41.5298,69.1033 4.8296,1.2941 10.7453,10.1261 11.3137,19.5959 1.0167,11.6605 8.9336,16.8876 23.233,17.6133 14.5582,-0.2402 18.8702,2.9857 12.4183,11.6097 -6.4519,8.624 -0.9151,11.1428 21.8881,11.0413 20.8715,-0.6192 31.9449,4.4185 41.1373,20.3402 7.3299,11.2815 11.6419,14.5075 9.5899,6.7107 -5.2593,-19.0089 17.0957,-21.3011 36.2062,-3.7572 9.0722,8.6426 17.5068,11.9379 17.5761,7.8154 1.5715,-21.3198 10.4729,-31.358 19.5452,-22.7154 4.7602,5.4166 15.4548,4.1411 23.3209,-2.0334 7.8661,-6.1745 22.7525,-11.5032 32.4811,-13.0375 10.4357,-0.3096 21.0101,-8.8642 23.3395,-17.5575 2.3294,-8.6934 9.419,-11.9701 16.37,-7.0018 7.658,6.1931 13.0746,1.4328 15.7322,-12.3489 2.1399,-11.85 9.1788,-26.5283 15.5613,-31.0298 6.6414,-5.4674 11.6791,-16.5408 11.1106,-26.0106 -1.7931,-8.7627 2.4681,-16.9384 9.299,-19.2492 6.572,-1.3449 11.092,-10.4865 10.2648,-18.9903 -0.8272,-8.5039 8.9893,-29.6849 22.6002,-45.7081 19.0275,-20.7835 29.7914,-26.1816 42.5379,-19.6603 8.8828,5.4859 14.2301,4.8482 12.8852,-1.7238 -2.5696,-5.8649 8.832,-5.9157 27.6329,1.1925 22.6646,8.1435 30.0638,15.3025 25.285,25.4101 -6.0036,10.8146 -4.0718,11.3323 7.9168,5.2271 12.2475,-7.071 16.3007,-2.8792 21.4906,20.2523 3.8452,16.5594 3.3089,34.0154 -1.6594,40.9664 -4.7095,5.985 -3.8823,14.4889 0.878,19.9055 5.4674,6.6414 7.2098,4.0024 4.4507,-5.0191 -2.7591,-9.0215 -1.0167,-11.6605 4.4507,-5.0191 4.7603,5.4166 5.3287,14.8864 0.6192,20.8714 -4.9684,6.951 -4.4,16.4208 -0.6056,21.5786 5.0191,4.4507 5.8463,12.9545 1.6544,17.0077 -5.1578,3.7944 -6.78,13.7124 -4.4692,20.5433 3.0179,8.0555 0.2216,30.0824 -3.73,48.6938 -4.9176,18.3526 -6.7479,40.6382 -4.6959,48.435 3.0179,8.0555 0.7579,12.6263 -5.0377,11.0734 -5.7956,-1.5529 -13.2134,6.8123 -16.578,19.3693 -11.3881,42.5008 -18.9446,59.111 -31.9685,69.0798 -6.6413,5.4674 -10.6437,12.6772 -8.5224,16.3514 2.1213,3.6742 -8.5918,20.4739 -24.1346,35.9795 -15.5427,15.5056 -26.5147,33.2712 -23.945,39.1361 1.3448,6.572 -4.2613,8.1757 -13.4029,3.6556 -13.0053,-5.5553 -17.9043,-2.7269 -19.3371,10.3478 -0.6563,10.1769 -12.7837,24.5271 -26.963,31.0805 -17.8535,8.6748 -21.5971,14.9186 -13.939,21.1117 5.985,4.7095 1.8625,4.6402 -8.2451,-0.1387 -15.6442,-7.2977 -19.5773,-4.2105 -20.303,10.089 0.051,11.4016 -4.9176,18.3525 -10.7131,16.7996 -5.7956,-1.5529 -26.2881,5.3795 -44.918,16.952 -36.4836,20.2473 -120.0572,42.3707 -142.2735,36.4178 -7.7274,-2.0705 -14.5583,0.2403 -15.8524,5.0699 -1.2941,4.8296 -10.505,4.4321 -20.3537,-1.3127 -9.8488,-5.7448 -19.3186,-5.1764 -20.8715,0.6192 -1.8117,6.7615 -9.7979,5.6569 -24.4069,-5.5046 -15.575,-11.4202 -21.6293,-12.0072 -22.0269,-2.7962 -0.8458,7.0203 -9.6085,8.8135 -22.6138,3.2581 -12.0394,-5.2965 -21.768,-3.7621 -23.8385,3.9653 -2.3294,8.6933 -5.486,8.8828 -8.2451,-0.1387 -2.3108,-6.8309 -23.233,-17.6133 -47.3811,-24.0838 -30.2025,-7.0575 -41.7243,-14.2858 -37.7219,-21.4956 4.52,-9.1416 -0.3096,-10.4357 -15.9031,-6.3318 -15.3347,3.1381 -23.0621,1.0675 -25.8212,-7.954 -1.3448,-6.572 -12.1595,-12.5756 -22.5952,-12.266 -11.4016,0.051 -18.6114,-3.9517 -17.0585,-9.7472 1.5529,-5.7956 -6.6228,-10.0568 -18.0244,-10.006 -18.6808,0.1709 -23.1129,-10.3342 -13.5552,-30.5493 2.0012,-3.6049 -5.985,-4.7095 -17.9043,-2.7269 -16.5594,3.8451 -21.1302,1.5851 -22.854,-11.3001 -0.5684,-9.4698 -8.9336,-16.8876 -16.4715,-15.8016 -8.5039,0.8273 -16.162,-5.3658 -16.9892,-13.8697 -0.8272,-8.5038 -6.0358,-16.1111 -11.8313,-17.664 -15.4548,-4.1411 -45.7217,-65.0502 -36.3721,-72.8977 4.1919,-4.0532 -1.3448,-6.5721 -11.0734,-5.0377 -11.6605,1.0167 -15.2654,-0.9845 -9.5899,-6.7107 5.6754,-5.7262 -0.6886,-16.7489 -13.8834,-25.4609 -13.9018,-9.9366 -19.3692,-16.578 -12.6078,-14.7663 7.0203,0.8459 1.5022,-17.1971 -11.9328,-40.4673 -13.4351,-23.2702 -23.7135,-46.7298 -22.1606,-52.5253 1.5529,-5.7956 -3.3968,-14.3688 -10.3478,-19.3371 -6.6921,-5.9343 -9.9688,-13.0239 -6.0358,-16.1112 4.1919,-4.0532 1.9505,-15.0065 -3.7064,-24.8045 -5.398,-10.7638 -8.536,-26.0985 -6.4655,-33.826 2.3294,-8.6933 -0.6885,-16.7489 -5.5181,-18.043 -5.7956,-1.5529 -7.3299,-11.2815 -4.4829,-21.9067 2.847,-10.6251 1.3127,-20.3538 -4.4829,-21.9067 -4.8296,-1.2941 -4.9497,-8.5732 0.019,-15.5241 5.9343,-6.6922 3.434,-16.6796 -3.2581,-22.6138 -7.9169,-5.2272 -9.4512,-14.9558 -4.4829,-21.9068 4.9683,-6.9509 6.1423,-19.0597 2.1585,-27.374 -4.2427,-7.3485 -5.0513,-31.3765 -3.7386,-51.7303 1.5715,-21.3198 -0.7901,-39.5522 -4.6538,-40.5875 -4.8296,-1.2941 -3.725,-9.2803 2.0198,-19.129 5.486,-8.8829 5.694,-21.2504 1.6408,-25.4423 -5.0191,-4.4507 -3.8451,-16.5594 1.8997,-26.4082 5.7448,-9.8487 6.1423,-19.0597 2.2786,-20.0949 -4.8296,-1.2941 -6.1051,-11.9887 -3.9652,-23.8386 3.3646,-12.557 9.5949,-51.2634 15.0486,-87.072 11.8228,-82.7601 72.8533,-322.1202 82.1336,-325.8452 z m 22.0155,335.1169 c -6.7293,25.114 -9.8029,63.631 -6.2859,85.2789 2.551,21.389 0.5126,56.0422 -4.9226,76.3267 -9.8351,36.7052 -6.6141,90.3673 5.9429,93.7319 3.8637,1.0353 3.7064,24.8045 -1.3499,51.4022 -5.7126,36.7745 -3.4203,59.1295 10.463,84.5903 9.6406,18.1124 15.7966,41.5026 12.9495,52.1278 -7.2469,27.046 12.8431,87.2987 33.9548,101.2378 10.8146,6.0036 16.9198,17.9922 14.5904,26.6855 -5.694,21.2504 41.3032,96.9951 64.4854,103.2068 10.6252,2.847 21.8188,15.1638 24.7673,27.3419 7.242,30.9282 46.9465,64.343 91.3791,76.2487 20.2844,5.4352 40.2407,15.9589 44.4833,23.3073 8.4853,14.697 63.6124,25.3271 160.0341,32.5283 43.6054,3.4018 64.5462,-1.3399 93.4918,-20.5011 20.3723,-14.2115 48.2133,-25.3865 60.8397,-26.1444 42.0017,-2.2043 74.5707,-34.8885 89.841,-91.8781 l 13.9763,-52.16 -52.16,-13.9762 c -41.5348,-11.1292 -60.2156,-10.9584 -86.3835,1.7002 -26.168,12.6586 -36.6037,12.9682 -55.7835,-0.4533 -15.8337,-10.4543 -38.05,-16.4071 -63.044,-15.8573 -32.2731,0.67 -41.4147,-3.8501 -57.558,-24.7401 -9.71,-13.9898 -33.4607,-29.6713 -50.8473,-34.33 -26.08,-6.9881 -33.2204,-15.113 -39.5658,-41.6599 -4.2934,-18.7501 -20.1086,-44.7286 -36.1318,-58.3395 -20.0764,-17.8027 -27.8546,-31.2749 -23.9723,-45.7638 3.1058,-11.5911 -0.7901,-39.5522 -8.4295,-61.2695 -6.6736,-21.4584 -10.3614,-61.787 -8.2029,-89.1611 8.7862,-75.2915 45.6401,-189.6496 67.0477,-207.7248 10.5744,-8.5547 23.0993,-32.1158 28.2757,-51.4343 7.5057,-28.0119 19.3742,-41.3962 52.4423,-60.488 26.9444,-15.5564 45.4543,-34.408 49.5954,-49.8628 4.9176,-18.3526 12.7837,-24.5271 31.4644,-24.698 28.8577,0.4854 69.2743,-22.8491 86.9569,-50.2046 9.2296,-15.1266 19.4758,-18.5928 40.7262,-12.8988 19.3185,5.1764 41.2252,0.6935 63.0118,-11.0685 26.9444,-15.5563 42.9862,-17.4696 78.7254,-7.8933 28.9778,7.7646 53.00579,6.9559 65.25329,-0.1151 18.3712,-10.6067 22.2349,-9.5714 38.8958,9.3868 12.8667,13.8003 33.0817,23.3581 60.9041,27.7072 30.979,4.1597 48.2963,12.941 63.9914,31.6403 11.6418,14.5075 37.7726,32.8972 56.3147,40.9714 20.2151,9.5577 39.3255,27.1017 46.5861,42.5057 6.2946,15.1452 27.2675,37.3294 45.9991,48.5601 24.0094,14.7155 38.7385,33.1561 45.6016,57.7711 6.1559,23.3902 21.3333,44.0214 41.479,57.7017 20.4046,12.7143 30.1146,26.7041 27.2676,37.3293 -5.4352,20.2845 26.0564,80.4864 45.375,85.6628 6.7614,1.8117 17.2987,24.3054 23.6441,50.8523 7.0524,27.7716 22.35,55.6819 39.3391,69.5516 15.3161,12.3862 27.337,33.2069 26.8701,46.5404 0.7393,28.1505 38.3546,84.8169 62.5028,91.2874 10.6252,2.847 16.7303,14.8356 16.7117,30.3598 -0.2266,27.8917 40.1664,78.0555 69.1442,85.8201 9.6592,2.5882 17.7656,10.9719 18.5928,19.4758 3.1888,26.7363 39.9955,59.3747 83.6516,74.1782 22.6646,8.1435 45.967,21.6343 52.1415,29.5004 14.2115,20.3723 206.5694,63.6323 238.2741,53.4926 13.6616,-4.6216 25.6503,-10.7268 26.6855,-14.5905 1.2941,-4.8296 13.6617,-4.6215 28.1506,-0.7393 33.8074,9.0587 95.4743,-8.5818 116.503,-32.9702 9.1602,-11.0041 31.9128,-22.5073 50.4041,-25.8348 20.6819,-3.7757 46.6604,-19.5909 64.4631,-39.6673 16.3192,-18.4033 44.3683,-41.9459 61.5147,-51.8454 19.5959,-11.3137 40.107,-33.7703 50.7,-57.849 9.8165,-21.1811 30.2075,-50.9167 45.7502,-66.4223 16.7675,-16.2127 31.5524,-44.3447 39.317,-73.3224 6.7293,-25.1141 19.4114,-72.4445 27.9524,-104.32 29.9537,-107.9249 39.8953,-179.8009 30.911,-208.0902 -6.0358,-16.1111 -6.8445,-40.1392 -3.221,-53.6621 9.0587,-33.8074 -0.7851,-97.5263 -17.3259,-109.2054 -6.951,-4.9683 -10.6066,-18.3712 -8.0184,-28.0304 9.3174,-34.7733 -4.977,-93.4732 -26.0193,-111.5348 -12.936,-9.6778 -20.7142,-23.15 -18.6436,-30.8774 7.5057,-28.0118 -11.3087,-77.57 -36.9219,-97.8916 -15.3161,-12.3862 -28.044,-34.43161 -30.595,-55.82068 -3.4476,-25.77041 -16.2449,-43.6933 -44.2382,-66.72321 -21.3011,-17.09566 -37.255,-34.82908 -35.7021,-40.62463 4.9176,-18.35259 -35.9237,-70.70704 -59.1059,-76.91869 -14.4889,-3.88229 -32.1158,-23.09927 -45.9991,-48.56009 -17.8672,-33.77522 -30.5443,-44.41899 -58.5562,-51.92474 -23.1822,-6.21166 -36.377,-14.92357 -37.6525,-25.61811 -2.0334,-23.32092 -42.445,-57.96052 -78.1842,-67.53683 -16.4208,-4.39992 -39.9126,-21.0473 -52.2616,-36.77951 -15.695,-18.69934 -37.7726,-32.89722 -69.6482,-41.43825 -25.8211,-7.95404 -52.2801,-21.25535 -59.1617,-30.3462 -6.6228,-10.05678 -32.6334,-21.16741 -63.8018,-28.4837 -28.2707,-6.53982 -61.0429,-19.46219 -71.7882,-29.58832 -11.4524,-11.35088 -35.79,-20.97795 -60.9734,-23.58472 -22.0268,-2.79624 -46.6926,-7.33487 -53.4541,-9.1466 -95.0397,-31.67746 -240.8437,-59.3575 -262.3715,-48.56142 -12.6957,4.88039 -36.2061,3.75718 -57.9047,-4.12751 -22.9234,-7.17758 -52.4882,-8.88778 -77.8103,-3.24951 -23.1315,5.18999 -60.0447,7.72243 -81.1056,5.18501 -22.9928,-3.05506 -52.4374,2.51386 -71.7745,12.86164 -17.1464,9.8995 -41.2438,14.83066 -52.8349,11.72484 -30.9097,-8.28221 -72.7912,1.20118 -96.2001,22.88125 -11.7991,9.26174 -27.2032,16.52228 -35.8965,14.19291 -28.01189,-7.50576 -79.24309,9.82516 -101.49659,34.92065 -13.0932,14.09137 -29.9808,23.02494 -37.7082,20.95439 -19.3185,-5.17639 -97.4434,39.11252 -102.6198,58.43104 -2.0705,7.72741 -18.6993,15.69505 -35.9659,18.31542 -31.1176,4.08536 -71.9317,36.63085 -78.661,61.74492 -1.5529,5.79556 -22.1841,20.97297 -45.1955,33.44207 -30.3598,16.71175 -44.6778,31.51022 -50.3718,52.76059 -5.4352,20.28444 -20.012,36.04884 -44.5069,50.19098 -29.3939,16.97056 -39.0717,29.90654 -47.8716,62.74801 -7.7646,28.97778 -18.7365,46.74338 -38.3324,58.05709 -20.1136,13.24556 -32.0514,30.75234 -42.076,64.30093 -7.9541,25.82118 -19.7718,50.60708 -25.7061,57.29921 -17.4746,14.98794 -59.8144,138.22897 -84.1619,244.55017 -11.5268,50.7457 -26.1593,113.0826 -33.8546,137.9379 z m 512.6153,918.9883 c 8.5039,-0.8272 6.3825,-4.5014 -4.2427,-7.3484 -10.3663,-3.813 -16.9383,-2.4681 -13.8511,1.465 2.1213,3.6742 10.5559,6.9695 18.0938,5.8834 z M 1980.3452,375.77315 c 8.5038,-0.82723 6.3825,-4.50146 -4.2427,-7.34847 -10.3663,-3.81293 -16.9383,-2.46807 -13.8511,1.46498 2.1213,3.67424 10.5558,6.96953 18.0938,5.88349 z m 173.1731,87.81265 c 8.5039,-0.82722 6.3826,-4.50146 -4.2426,-7.34847 -10.3664,-3.81293 -16.9384,-2.46807 -13.8512,1.46498 2.1214,3.67424 10.5559,6.96954 18.0938,5.88349 z m 148.6783,101.95478 c 8.5038,-0.82722 6.3825,-4.50145 -4.2427,-7.34846 -10.3663,-3.81294 -16.9384,-2.46808 -13.8511,1.46498 2.1213,3.67423 10.5558,6.96953 18.0938,5.88348 z"
       id="path10"
       style="fill:#ff0000"
       inkscape:connector-curvature="0" />
    <path
       d="m 331.35441,1140.0242 c 13.1626,-18.2139 30.3227,14.3366 22.8169,42.3484 -5.1764,19.3185 -8.8506,21.4398 -16.1805,10.1583 -6.1745,-7.8661 -14.3502,-12.1273 -18.2832,-9.0401 -9.5392,4.691 -0.9981,-27.1846 11.6468,-43.4666 z"
       id="path12"
       style="fill:#ff0000"
       inkscape:connector-curvature="0" />
    <path
       d="m 312.83961,1216.8499 c 9.3497,-7.8475 13.6617,-4.6215 21.5599,16.1298 11.1057,31.9635 10.8469,32.9294 -12.2524,65.0452 -16.6474,23.4918 -17.6133,23.233 -26.4775,2.2228 -9.7608,-25.3914 -0.8222,-66.478 17.17,-83.3978 z"
       id="path14"
       style="fill:#ff0000"
       inkscape:connector-curvature="0" />
    <path
       d="m 383.30271,1007.9697 c 22.2349,-9.5713 27.1153,3.1244 15.9861,44.6593 -9.3175,34.7733 -36.6594,59.5406 -45.593,42.653 -8.4852,-14.6969 13.9441,-79.0858 29.6069,-87.3123 z"
       id="path16"
       style="fill:#ff0000"
       inkscape:connector-curvature="0" />
    <path
       d="m 284.07351,1355.116 c 13.1626,-18.2138 37.1349,27.55 29.3703,56.5278 -11.388,42.5007 -29.2415,51.1755 -40.606,20.1779 -9.502,-26.3574 -4.894,-55.1457 11.2357,-76.7057 z"
       id="path18"
       style="fill:#ff0000"
       inkscape:connector-curvature="0" />
    <path
       d="m 433.67951,897.23501 c 25.2206,-28.44155 38.9331,-21.66149 31.9957,15.82015 -6.2302,38.70638 -45.3713,72.73544 -54.1662,47.60279 -5.9664,-20.23368 0.4347,-40.2593 22.1705,-63.42294 z"
       id="path20"
       style="fill:#ff0000"
       inkscape:connector-curvature="0" />
    <path
       d="m 285.06171,1498.2489 c 17.3866,4.6588 25.784,39.0024 17.2429,70.878 -8.7998,32.8414 -26.0663,35.4618 -36.4649,4.7231 -11.8128,-33.1883 -0.097,-80.7774 19.222,-75.6011 z"
       id="path22"
       style="fill:#ff0000"
       inkscape:connector-curvature="0" />
    <path
       d="m 403.07821,1115.7609 c 6.9002,-6.4333 19.4944,-34.117 26.7413,-61.1629 7.2469,-27.046 21.0659,-55.43674 32.6062,-63.73256 10.3156,-7.5887 24.5828,-33.78882 30.7945,-56.97104 8.0234,-29.9437 18.9953,-47.7093 37.6253,-59.28183 13.731,-8.7441 32.5691,-32.68419 41.1609,-53.1581 10.8518,-25.04472 27.4298,-44.41401 50.4411,-56.88311 25.4609,-13.88332 37.5882,-28.23351 43.7998,-51.41572 4.6588,-17.38667 12.4048,-30.84028 17.2344,-29.54619 20.2844,5.4352 81.0734,-32.11081 94.1159,-57.60381 9.0401,-18.28324 21.8052,-27.28616 38.2953,-27.00876 28.8576,0.48545 70.7578,-24.52211 82.5755,-49.30801 5.2965,-12.0394 18.9582,-16.66097 41.5026,-15.79658 37.551,2.81482 73.96519,-13.30993 89.90549,-38.02648 8.4531,-12.22887 20.3723,-14.21149 42.5886,-8.25865 28.9778,7.76457 93.1636,-15.41267 98.34,-34.73119 1.0352,-3.8637 15.783,-0.94734 32.652,5.64325 23.3717,9.36826 40.3794,7.71381 70.9287,-5.84134 28.6174,-14.07279 47.557,-15.2096 70.2215,-7.06609 32.0651,11.69763 96.4911,3.07862 101.1498,-14.30804 1.5529,-5.79556 7.3485,-4.24264 18.0938,5.88349 22.4565,20.51107 55.5568,28.34499 89.9005,19.94764 17.5253,-3.5863 47.2796,1.2805 81.2764,13.49576 32.0651,11.69762 59.8874,16.04678 69.4266,11.35585 12.6957,-4.8804 23.0621,-1.06746 43.8456,17.96005 22.7153,19.54515 35.9795,24.13454 68.9596,24.68935 34.205,-0.15231 45.5373,3.91945 59.8181,20.1693 11.1936,12.3168 36.2383,23.16861 61.6112,28.93198 27.5636,5.31508 49.4517,16.35637 61.0936,30.86384 11.9007,13.54154 38.1008,27.80878 65.1467,35.05571 26.08,6.98811 45.3292,16.28702 43.7763,22.08257 -3.6235,13.52296 42.7731,52.87208 72.7168,60.89547 14.4889,3.88229 36.2383,23.16862 51.1569,44.76574 16.7811,26.23728 34.7362,40.36581 57.9184,46.57747 23.1822,6.21166 32.5133,13.8883 30.1839,22.58163 -5.4352,20.28444 38.9417,78.76261 65.9876,86.00954 16.4207,4.39992 22.3364,13.23196 22.5073,31.91272 -0.4854,28.85765 29.5412,75.20854 53.6894,81.67894 9.6592,2.5882 19.4894,23.8572 23.6441,50.8523 4.6723,25.0633 18.7451,53.6808 30.1975,65.0316 16.282,12.645 22.059,29.7221 19.9699,52.9736 -1.3127,20.3538 6.7057,48.3843 18.7959,65.0824 14.9186,21.5971 19.4014,43.5038 15.5006,73.5169 -3.3139,23.9587 -0.1945,54.8175 7.5837,68.2897 14.3316,27.6515 8.323,96.4403 -14.453,181.4418 -7.6953,24.8552 -12.1138,56.8001 -10.6488,70.6513 1.9133,16.0418 -3.1938,31.2378 -16.9941,44.1044 -10.385,11.7112 -23.6863,38.1701 -30.0874,58.1958 -6.7293,25.114 -18.926,43.5867 -36.3312,54.4522 -13.731,8.7441 -32.5691,32.6842 -41.4197,54.124 -8.8506,21.4398 -21.2368,36.7559 -27.9982,34.9442 -20.2845,-5.4352 -76.2438,33.4049 -82.4555,56.5871 -5.1763,19.3186 -11.0413,21.8882 -36.1553,15.1589 -22.2163,-5.9529 -40.9664,-1.6595 -70.6191,16.277 -31.1363,19.6095 -44.2803,22.2993 -63.5295,13.0004 -15.6443,-7.2977 -39.4135,-7.455 -64.0285,-0.592 -32.4118,8.915 -43.5546,7.9998 -57.6459,-5.0934 -9.7794,-9.8673 -37.2736,-19.3049 -66.0619,-23.9129 -25.8906,-3.8315 -46.8821,-10.4915 -45.8468,-14.3552 4.1411,-15.4548 -53.329,-59.8416 -79.7372,-61.7413 -21.3197,-1.5715 -26.3388,-6.0221 -22.9742,-18.5792 6.2117,-23.1822 -22.9184,-65.1517 -57.553,-82.7142 -18.2833,-9.0401 -28.5109,-21.0981 -26.1816,-29.7914 5.6941,-21.2504 -34.2321,-84.7477 -57.4143,-90.9593 -14.4889,-3.8823 -18.7315,-11.2308 -14.3316,-27.6515 6.7293,-25.1141 -25.4695,-86.5408 -48.6517,-92.7525 -7.7274,-2.0705 -17.2987,-24.3054 -21.9711,-49.3687 -5.0512,-31.3765 -17.5203,-54.3878 -35.4754,-68.5163 -15.3161,-12.3862 -28.7512,-35.6564 -31.3715,-52.9229 -4.7232,-36.4649 -28.4552,-67.6706 -58.3989,-75.6939 -11.5911,-3.1059 -21.1117,-13.9391 -21.4213,-24.3748 -1.8253,-35.6885 -35.3367,-76.7614 -70.8171,-87.3037 -23.8894,-7.4364 -34.1864,-15.3718 -34.6854,-28.9641 -1.5158,-25.2528 -54.6739,-66.4137 -87.6541,-66.9685 -16.4901,-0.2774 -29.9437,-8.0234 -39.3949,-22.9791 -8.7441,-13.731 -27.4756,-24.9618 -54.7804,-31.2428 -22.4751,-4.9869 -69.0983,-16.4443 -103.8717,-25.7618 -50.22809,-13.4586 -68.90889,-13.2877 -89.47069,-2.2328 -14.4381,7.5194 -37.0519,10.7775 -50.5749,7.154 -39.603,-10.6115 -78.0691,-2.2835 -103.738,23.9673 -12.8344,13.1255 -31.9127,22.5073 -41.572,19.9191 -28.9777,-7.7645 -70.5497,12.1546 -91.1995,42.8562 -10.7131,16.7996 -28.8948,30.5628 -40.2964,30.6136 -26.2187,1.2569 -73.0364,44.6171 -80.801,73.5949 -3.1058,11.5911 -19.1662,29.0285 -36.3127,38.928 -24.4949,14.1421 -33.2068,27.3369 -43.0419,64.0421 -6.7293,25.1141 -21.2553,52.2801 -31.8298,60.8347 -13.0239,9.9689 -26.2051,43.7069 -47.687,123.8788 -24.8467,92.7289 -27.3841,113.7898 -16.3985,138.4741 6.2946,15.1453 7.9998,43.5546 3.0822,61.9072 -9.8351,36.7052 13.5316,104.0476 38.6457,110.7769 7.7274,2.0705 10.9348,13.2827 7.0525,27.7716 -8.5411,31.8756 21.1574,83.3148 51.1011,91.3382 14.4889,3.8823 27.3555,17.6827 33.1325,34.7598 l 9.2432,27.3233 -34.9628,-12.4741 c -24.3377,-9.6271 -35.083,-19.7532 -36.5479,-33.6043 -2.93,-27.7023 -38.7522,-75.6061 -60.9685,-81.5589 -14.4889,-3.8823 -16.5409,-11.679 -9.5527,-37.759 6.4704,-24.1482 3.5912,-40.4488 -13.0004,-63.5295 -14.9186,-21.5971 -20.1086,-44.7286 -17.4324,-74.0345 2.3479,-24.2175 -1.2892,-53.1445 -8.3602,-65.3919 -7.0711,-12.2475 -8.5175,-41.6228 -3.6507,-71.377 4.3492,-27.8224 4.3863,-58.8707 -0.046,-69.3758 -7.7088,-17.5947 -5.689,-36.7238 35.0521,-223.545 12.1137,-56.8001 21.7779,-112.1861 22.6931,-123.3289 -0.051,-11.4016 6.0222,-26.3388 12.9224,-32.7721 z m 121.7438,1.5629 c 82.9223,-69.9207 180.6431,-125.52328 200.3405,-114.0337 4.5708,2.26 7.5379,-1.086 7.159,-7.39924 0.9845,-15.26535 144.2933,-55.54687 163.0248,-44.31612 9.1416,4.52004 13.523,3.62347 11.471,-4.17329 -2.3108,-6.83083 4.0024,-7.20977 15.783,-0.94734 10.5558,6.96953 18.8009,7.10823 16.9383,2.46807 -3.6556,-13.40284 64.16729,-7.65308 77.03389,6.14729 5.7262,5.67543 8.8828,5.48596 6.572,-1.34487 -5.5182,-18.043 100.6136,3.14797 177.2313,34.03039 84.7934,35.14361 114.5984,51.41211 106.2147,59.51841 -4.1919,4.0532 3.2767,7.0897 15.9031,6.3318 11.4016,-0.051 18.6114,3.9516 14.4195,8.0048 -5.1578,3.7944 2.2414,10.9534 14.7985,14.318 54.9884,18.8752 213.0435,197.8824 199.2246,226.2732 -2.7777,6.5027 0.051,11.4016 6.1051,11.9886 6.0544,0.587 29.2688,33.7245 52.6033,74.1411 22.6274,39.1918 37.8556,71.2246 33.026,69.9305 -4.8296,-1.2941 -4.7095,5.9851 -0.019,15.5242 4.6909,9.5391 11.1242,16.4393 15.7644,14.5768 10.9534,-2.2414 87.0621,130.997 78.23,136.9126 -3.6742,2.1214 2.052,7.7968 12.1596,12.5756 10.1075,4.7789 26.7685,23.7371 36.8574,44.0401 9.3819,19.0783 36.3213,61.4961 59.0874,92.4429 23.4733,32.1715 38.7708,60.0818 33.8718,62.9102 -3.6742,2.1213 1.1554,3.4154 11.8499,2.1399 13.8512,-1.465 17.4561,0.5363 10.5559,6.9696 -6.9002,6.4333 -3.5541,9.4004 8.3651,7.4178 13.8512,-1.465 15.2654,0.9845 6.8816,9.0908 -6.9001,6.4333 -6.7107,9.5899 1.3449,6.572 14.6276,-4.3627 61.0428,19.4622 52.6591,27.5686 -2.7084,2.3801 26.4589,13.3013 65.0959,23.6541 38.6371,10.3527 69.3572,15.4783 67.4947,10.8382 -0.6377,-5.3473 4.0024,-7.2098 10.7639,-5.3981 7.7274,2.0706 32.2731,-0.6699 55.4045,-5.8599 23.8386,-3.9652 46.9007,-5.0327 51.661,0.3839 5.0191,4.4507 7.2097,4.0024 3.4154,-1.1554 -5.1392,-11.7298 94.6521,-75.0598 104.4315,-65.1925 2.1213,3.6742 6.0543,0.587 7.8661,-6.1745 0.587,-6.0544 20.2015,-32.8922 41.489,-58.2465 97.7257,-113.5768 132.5834,-282.3042 95.3755,-464.1299 -8.5175,-41.6227 -11.0499,-78.536 -6.5992,-83.5551 5.4166,-4.7602 4.0024,-7.2097 -2.5697,-5.8649 -14.8864,5.3287 -52.8435,-88.6992 -40.2679,-100.8588 4.4507,-5.0191 4.0024,-7.2097 -1.1554,-3.4154 -13.2133,6.8123 -73.8351,-95.3592 -62.743,-105.8457 4.4507,-5.0191 2.7777,-6.5026 -2.8284,-4.899 -12.4369,3.9145 -73.0265,-71.33114 -66.7641,-83.11172 2.0012,-3.60489 -3.0178,-8.05558 -12.9359,-9.67784 -8.6934,-2.32937 -14.1607,-8.97074 -10.4172,-15.21458 3.0365,-7.46859 0.9152,-11.14282 -5.9156,-8.83203 -14.6276,4.36276 -45.3106,-31.81118 -32.8043,-39.84818 5.1578,-3.79435 3.2259,-4.31199 -4.5709,-2.26002 -16.5594,3.84512 -108.1279,-75.56022 -97.2947,-85.08078 4.4507,-5.0191 2.7777,-6.50266 -5.0191,-4.45069 -15.8523,5.06987 -50.6764,-15.64926 -40.8091,-25.42864 3.9331,-3.08724 -3.2767,-7.08965 -15.9031,-6.33177 -13.3335,-0.46687 -18.6114,-3.95164 -13.1948,-8.71192 6.6414,-5.46738 1.3635,-8.95215 -13.1948,-8.71191 -13.3335,-0.46687 -18.6114,-3.95164 -13.1948,-8.71192 6.6414,-5.46738 1.3635,-8.95215 -13.1948,-8.71191 -13.3334,-0.46687 -18.6114,-3.95164 -13.1947,-8.71192 5.4166,-4.76028 -1.7932,-8.76268 -18.0245,-10.00601 -19.3878,-1.05386 -23.6998,-4.2798 -15.3161,-12.38615 7.159,-7.39923 6.7107,-9.5899 -1.3448,-6.57201 -15.5936,4.10394 -99.6799,-29.81496 -91.2961,-37.9213 2.7083,-2.38014 -15.1267,-9.22955 -39.7925,-13.76818 -36.2569,-7.64445 -42.7595,-10.42211 -28.839,-16.00961 13.9204,-5.58751 14.1793,-6.55343 -3.2768,-7.08965 -11.1428,-0.91516 -82.6906,-15.94525 -157.5846,-33.94246 -75.8598,-18.25604 -136.7825,-30.43911 -135.6271,-27.0237 3.2074,11.21217 -86.573,-1.45635 -98.0254,-12.80723 -4.7603,-5.41662 -6.9509,-4.96833 -4.899,2.82843 4.3628,14.62758 -53.3525,13.65668 -66.9262,-1.36843 -6.4334,-6.90018 -7.9169,-5.22714 -5.4167,4.76028 3.2074,11.21217 -0.208,12.36757 -14.6276,4.36276 -10.5558,-6.96953 -18.8008,-7.10823 -16.9383,-2.46807 3.6556,13.40284 -36.8625,13.93408 -48.0561,1.61729 -5.7262,-5.67544 -7.9169,-5.22715 -6.572,1.34486 4.3628,14.62758 -55.2336,24.54068 -68.1003,10.74032 -5.0191,-4.45069 -8.1757,-4.26122 -8.5038,0.82722 0.3789,6.3132 -40.4166,23.33453 -89.4572,40.21716 -110.00039,35.74788 -215.25909,92.43654 -291.02239,154.95792 -119.8033,99.37886 -252.5154,273.97979 -278.0692,365.48399 l -9.0586,33.8074 22.8912,-19.7482 z M 1135.7789,977.69324 c 8.5038,-0.82723 6.3825,-4.50146 -4.2427,-7.34847 -10.3663,-3.81294 -16.9383,-2.46807 -13.8511,1.46498 2.1213,3.67423 10.5558,6.96953 18.0938,5.88349 z m 448.8585,-438.77785 c 8.5039,-0.82723 6.3826,-4.50146 -4.2426,-7.34847 -10.3664,-3.81294 -16.9384,-2.46807 -13.8511,1.46498 2.1213,3.67423 10.5558,6.96953 18.0937,5.88349 z"
       id="path24"
       style="fill:#ff0000"
       inkscape:connector-curvature="0" />
    <path
       d="m 1000.7079,701.317 c 8.037,12.50627 14.1421,24.4949 13.3657,27.39267 -0.7765,2.89778 -7.9169,-5.22715 -15.95389,-17.73341 -8.037,-12.50627 -14.1421,-24.4949 -13.3657,-27.39268 0.7765,-2.89778 7.9169,5.22715 15.95389,17.73342 z"
       id="path26"
       style="fill:#ff0000"
       inkscape:connector-curvature="0" />
    <path
       d="m 1075.4767,770.00923 c 27.7209,-18.45413 53.1123,-28.21492 57.8726,-22.79831 5.7262,5.67544 29.1165,-0.48047 53.0937,-12.69075 l 44.5391,-23.26518 -36.5528,24.3698 c -24.7538,15.10806 -32.4304,24.43915 -23.03,27.99327 7.7275,2.07055 1.6037,5.60609 -12.2474,7.07107 l -25.7704,3.4476 19.7296,38.41538 19.7297,38.41538 -22.9556,-34.10339 c -25.2664,-40.93422 -30.8031,-43.45306 -42.8103,-21.82376 -8.0049,14.41954 -8.9708,14.16072 -5.7956,-1.55291 5.2457,-23.44104 -3.7064,-24.80448 -43.8642,-2.43589 -49.6969,27.05953 -39.3119,15.3483 18.0616,-21.04231 z"
       id="path28"
       style="fill:#ff0000"
       inkscape:connector-curvature="0" />
    <path
       d="m 1217.8617,640.44642 c 7.7274,2.07056 15.3854,8.26363 16.9891,13.86972 2.5696,5.8649 -4.7095,5.98502 -14.5582,0.24023 -20.6634,-11.74839 -21.7494,-19.28633 -2.4309,-14.10995 z"
       id="path30"
       style="fill:#ff0000"
       inkscape:connector-curvature="0" />
    <path
       d="m 1358.5673,783.74655 c 4.7095,-5.98502 22.3042,-13.69385 41.0543,-17.98725 38.4662,-8.328 82.5706,8.66612 130.8297,52.6554 28.4416,25.22059 44.414,27.42984 31.2378,3.19376 -5.6568,-9.79796 -4.6723,-25.0633 4.7517,-95.00748 7.5937,-47.65854 10.1125,-53.19527 45.3713,-72.73544 44.0908,-25.45585 53.3018,-25.05833 72.3937,8.00979 17.6776,30.61862 4.4085,84.00336 -32.6298,137.23081 -30.3276,43.63755 -47.1831,79.49693 -38.4897,81.8263 3.8637,1.03527 29.8236,0.74427 57.9741,0.005 103.3912,-3.35469 163.4495,31.37285 148.6968,86.43062 -14.235,53.12594 -95.5301,55.15434 -161.6241,4.31564 -16.2821,-12.64497 -30.7016,-20.64978 -31.4781,-17.752 -0.7764,2.89777 -6.7615,-1.81174 -12.6771,-10.64377 -9.7101,-13.98983 -10.4865,-11.09205 -5.5046,24.40696 2.551,21.38907 0.1845,61.13071 -7.0624,88.17671 -9.3869,38.8958 -16.874,51.3835 -42.5937,66.2327 -41.3825,23.0757 -74.3441,6.9968 -80.3427,-40.1627 -4.603,-29.1858 -0.2724,-41.4841 32.1257,-92.84901 19.9427,-31.92632 41.1101,-64.55975 47.562,-73.18373 12.3862,-15.31611 -5.0005,-19.97486 -97.5585,-26.14073 -89.919,-4.42348 -139.2642,-55.9507 -102.0364,-106.02156 z m 9.206,58.37165 c 17.4882,27.46203 73.2531,43.43946 137.6097,38.94298 55.8529,-3.66926 61.667,-17.64051 22.4801,-52.98722 -54.2441,-48.69879 -98.6073,-64.72699 -137.2122,-48.15395 -37.6389,16.83187 -43.4531,30.80312 -22.8776,62.19819 z m 208.0951,-27.06317 c 3.8266,32.08361 8.5868,37.50022 21.5414,31.6539 22.4937,-10.53725 69.2792,-80.8232 80.1496,-121.39209 11.3881,-42.50073 -10.7217,-83.62442 -42.6159,-76.64129 -45.5558,11.60472 -70.5039,81.53031 -59.0751,166.37948 z m -80.8023,289.96727 c 10.2785,23.4596 39.5844,26.1357 62.2168,7.3534 34.6904,-29.01 52.4659,-133.98629 31.7196,-184.06213 -4.8804,-12.69574 -11.7112,-10.38495 -28.9964,7.75959 -53.8566,58.03851 -82.7378,131.05134 -64.94,168.94914 z m 154.0133,-157.50535 c 47.552,42.76453 102.7992,60.67385 135.0909,44.47971 45.505,-23.00636 29.2094,-78.10129 -27.7803,-93.37162 -55.0577,-14.75268 -143.4424,-9.44756 -148.1012,7.93911 -0.5176,1.93185 17.3681,20.1829 40.7906,40.9528 z"
       id="path32"
       style="fill:#ff0000"
       inkscape:connector-curvature="0" />
    <path
       d="m 1733.1707,923.46171 c 15.404,-7.26053 16.1111,-6.03579 7.658,6.19308 -5.2271,7.91687 -13.8003,12.86662 -18.63,11.57253 -12.557,-3.36465 -9.0722,-8.64257 10.972,-17.76561 z"
       id="path34"
       style="fill:#ff0000"
       inkscape:connector-curvature="0" />
    <path
       d="m 1514.7477,699.29126 c 7.7274,2.07055 10.297,7.93546 6.1051,11.98863 -4.4507,5.0191 -12.2474,7.07107 -18.043,5.51815 -4.8296,-1.29409 -7.6581,-6.19307 -6.1051,-11.98863 1.294,-4.82963 9.3496,-7.84752 18.043,-5.51815 z"
       id="path36"
       style="fill:#ff0000"
       inkscape:connector-curvature="0" />
    <path
       d="m 1440.7626,944.49772 c 6.572,-1.34487 13.7818,2.65754 15.1266,9.22955 5.0699,15.85233 -3.2445,19.83616 -16.1111,6.03579 -6.1745,-7.86611 -5.8464,-12.95455 0.9845,-15.26534 z"
       id="path38"
       style="fill:#ff0000"
       inkscape:connector-curvature="0" />
    <path
       d="m 1525.6997,913.42218 27.1338,-12.39975 -24.3054,17.29873 c -22.8219,15.6257 -32.1022,19.35071 -30.0316,11.6233 0.5176,-1.93185 12.7651,-9.00292 27.2032,-16.52228 z"
       id="path40"
       style="fill:#ff0000"
       inkscape:connector-curvature="0" />
    <path
       d="m 1704.1843,815.27304 c 24.3054,-17.29873 37.4494,-19.98846 33.8259,-6.4655 -1.0352,3.86371 -15.4734,11.38306 -30.6186,17.67767 -34.413,12.51988 -34.8612,10.3292 -3.2073,-11.21217 z"
       id="path42"
       style="fill:#ff0000"
       inkscape:connector-curvature="0" />
    <path
       d="m 1682.4471,1054.809 c 4.8296,1.2941 4.9498,8.5733 -0.019,15.5242 -5.9342,6.6921 -11.6097,12.4183 -13.5415,11.9007 -1.9319,-0.5176 -2.052,-7.7967 0.019,-15.5242 2.0705,-7.7274 7.7459,-13.4536 13.5415,-11.9007 z"
       id="path44"
       style="fill:#ff0000"
       inkscape:connector-curvature="0" />
    <path
       d="m 1695.1093,1239.3752 c 5.6061,-1.6037 9.4005,3.5541 7.3299,11.2815 -2.3294,8.6934 -8.9707,14.1608 -13.8004,12.8667 -5.7955,-1.553 -8.6239,-6.4519 -7.3298,-11.2816 1.5529,-5.7955 7.2283,-11.5217 13.8003,-12.8666 z"
       id="path46"
       style="fill:#ff0000"
       inkscape:connector-curvature="0" />
    <path
       d="m 1728.6257,1222.474 c 14.5211,30.8081 14.5211,30.8081 40.8971,5.782 l 17.7334,-15.9539 -11.9379,17.5068 c -6.7107,9.5899 -14.1979,22.0776 -16.7167,27.6143 -2.5188,5.5367 -13.6109,16.0232 -25.5995,22.1284 -11.2815,7.3298 -22.1148,16.8504 -23.6677,22.646 -1.5529,5.7955 -4.2612,8.1756 -6.3825,4.5014 -2.1214,-3.6742 3.434,-16.6795 13.5601,-27.4248 14.1285,-17.9551 15.7508,-27.8732 8.1807,-53.713 l -8.915,-32.4117 12.848,29.3245 z"
       id="path48"
       style="fill:#ff0000"
       inkscape:connector-curvature="0" />
    <path
       d="m 1748.0508,1192.4795 c 5.8649,-2.5696 12.1087,1.174 13.7124,6.7801 2.5696,5.8649 -1.174,12.1087 -6.7801,13.7124 -5.8649,2.5696 -12.1087,-1.174 -13.7124,-6.78 -2.5696,-5.8649 1.174,-12.1088 6.7801,-13.7125 z"
       id="path50"
       style="fill:#ff0000"
       inkscape:connector-curvature="0" />
    <path
       d="m 1808.711,1047.2303 c 13.4722,-7.7782 35.12,-11.2951 48.643,-7.6717 56.9896,15.2704 92.8626,74.5758 123.4341,203.8947 14.4839,61.8564 16.8641,64.5647 25.0769,37.7776 9.6965,-28.4601 9.4376,-27.4942 6.4333,6.9002 l -2.2971,35.6191 29.6205,-44.8623 c 37.5559,-55.1593 111.0084,-124.5115 145.4214,-137.0314 41.2438,-14.8306 93.5933,2.3022 107.8555,34.0762 31.5424,71.6036 -34.1133,138.9039 -165.1053,167.9918 l -32.86,6.7243 42.949,13.5787 c 40.0512,12.8023 38.8265,13.5094 -16.5594,3.8451 l -59.5085,-9.7335 43.3787,31.2935 c 72.1485,51.4257 108.419,101.5201 113.8306,154.734 4.6538,40.5874 2.0656,50.2467 -15.996,71.289 -21.0287,24.3884 -56.7172,26.2137 -97.3369,3.9417 -31.478,-17.752 -69.0054,-94.0651 -88.4205,-180.0189 -15.3805,-66.2378 -19.6231,-73.5863 -28.922,-54.3371 -8.5918,20.4739 -9.8166,21.181 -11.2122,3.2074 -1.9133,-16.0418 -8.2958,-11.5404 -32.8786,22.2484 -41.7479,59.2125 -115.5793,122.2516 -148.1806,128.0099 -69.325,11.4475 -111.0814,-29.7641 -93.9994,-93.5153 16.0468,-59.8874 53.5656,-83.9983 167.9981,-109.2412 l 67.2037,-15.1216 -52.6083,-16.1669 c -47.0715,-13.6481 -48.7446,-15.1316 -17.2479,-12.9038 34.6532,2.0384 34.6532,2.0384 13.5415,-11.9007 -100.5392,-65.2446 -139.6146,-193.7363 -72.2536,-232.6272 z m 0.868,135.8538 c 16.7117,30.3598 84.0814,91.893 133.7733,122.8076 28.5802,16.9755 32.6012,-5.7584 14.531,-85.1402 -23.3295,-98.3907 -54.5116,-148.1569 -101.842,-160.8391 -30.9096,-8.2822 -40.6382,-6.7478 -52.0584,8.8271 -18.6486,27.0967 -16.7725,74.1868 5.5961,114.3446 z m -91.9823,320.1004 c 3.5355,6.1237 19.8869,14.6461 37.5324,18.3389 43.7255,10.681 93.2329,-19.5351 155.3532,-92.9591 71.5392,-85.394 65.434,-97.3827 -43.5819,-76.9001 -69.5838,12.4133 -109.2239,32.8501 -136.2562,68.0531 -17.3545,22.2671 -23.3953,64.1301 -13.0475,83.4672 z m 324.2292,-182.2949 c 1.465,13.8511 6.2947,15.1452 45.6574,11.1986 110.1019,-12.9446 175.7205,-49.1965 190.9908,-106.1862 11.3881,-42.5007 2.265,-62.5449 -33.4742,-72.1212 -39.603,-10.6116 -96.9072,21.6565 -152.8343,87.4224 -28.4466,32.7536 -51.2177,59.7809 -51.4765,60.7468 -0.2588,0.966 0.5684,9.4698 1.1368,18.9396 z m -1.5306,148.6696 c 32.0736,112.1218 89.9734,174.2234 136.5137,147.3533 68.3269,-38.632 19.0561,-152.2559 -99.2488,-228.4725 -60.2477,-37.8841 -67.5454,-22.2398 -37.2649,81.1192 z"
       id="path52"
       style="fill:#ff0000"
       inkscape:connector-curvature="0" />
    <path
       d="m 1832.8219,1084.7491 c 1.9319,0.5176 11.5726,18.63 23.3346,40.4166 l 19.7296,38.4154 -24.3698,-36.5529 c -21.7308,-34.8105 -26.4218,-44.3496 -18.6944,-42.2791 z"
       id="path54"
       style="fill:#ff0000"
       inkscape:connector-curvature="0" />
    <path
       d="m 1873.6769,1179.5535 c 13.7818,2.6576 24.5456,-2.7405 31.0669,-15.487 9.5577,-20.2151 9.5577,-20.2151 5.2779,3.4848 -3.3646,12.557 7.9305,47.6771 23.4175,78.744 l 29.8879,54.5959 -32.5962,-52.2158 c -18.1953,-28.6867 -42.9627,-56.0286 -55.7092,-62.5499 -20.2151,-9.5577 -20.2151,-9.5577 -1.3448,-6.572 z"
       id="path56"
       style="fill:#ff0000"
       inkscape:connector-curvature="0" />
    <path
       d="m 1777.2303,1462.223 c 18.8194,-8.4159 19.5265,-7.1912 2.8284,4.899 -16.6981,12.0902 -25.7197,14.8493 -23.6491,7.1219 0.5176,-1.9319 10.3156,-7.5888 20.8207,-12.0209 z"
       id="path58"
       style="fill:#ff0000"
       inkscape:connector-curvature="0" />
    <path
       d="m 1908.1579,1379.2835 51.8875,-27.5078 -49.7662,31.182 c -26.2373,16.7811 -49.5075,30.2161 -51.4393,29.6985 -7.7274,-2.0705 2.3294,-8.6933 49.318,-33.3727 z"
       id="path60"
       style="fill:#ff0000"
       inkscape:connector-curvature="0" />
    <path
       d="m 2103.1325,1281.4117 c 40.1578,-22.3686 56.9253,-38.5812 63.844,-60.5387 7.7646,-28.9778 7.7646,-28.9778 11.2122,-3.2074 2.9993,23.5798 -4.1597,30.979 -65.1381,65.3684 -37.0012,22.1791 -66.8433,36.959 -66.0669,34.0613 0.5177,-1.9319 25.789,-18.9718 56.1488,-35.6836 z"
       id="path62"
       style="fill:#ff0000"
       inkscape:connector-curvature="0" />
    <path
       d="m 2081.7471,1442.361 c 16.3328,24.0466 28.3536,44.8673 25.6453,47.2474 -2.4495,1.4142 -15.9538,-17.7334 -30.5443,-44.419 l -25.6453,-47.2474 30.5443,44.419 z"
       id="path64"
       style="fill:#ff0000"
       inkscape:connector-curvature="0" />
    <path
       d="m 2146.3019,1541.4452 c 1.9318,0.5177 7.5887,10.3156 11.762,21.7866 8.6747,17.8535 7.45,18.5607 -4.6402,1.8625 -12.0902,-16.6981 -14.8492,-25.7196 -7.1218,-23.6491 z"
       id="path66"
       style="fill:#ff0000"
       inkscape:connector-curvature="0" />
    <path
       d="m 1727.8765,1310.2717 c 5.6061,-1.6037 9.4004,3.5541 7.3299,11.2815 -2.3294,8.6934 -8.9708,14.1608 -13.8004,12.8667 -5.7956,-1.553 -8.624,-6.4519 -7.3299,-11.2816 1.5529,-5.7955 7.2284,-11.5217 13.8004,-12.8666 z"
       id="path68"
       style="fill:#ff0000"
       inkscape:connector-curvature="0" />
    <path
       d="m 1752.8197,1298.3202 c 4.9497,8.5733 5.7769,17.0771 2.1027,19.1984 -3.6742,2.1214 -8.1757,-4.2612 -8.4853,-14.6969 -2.1721,-15.0759 -0.9473,-15.783 6.3826,-4.5015 z"
       id="path70"
       style="fill:#ff0000"
       inkscape:connector-curvature="0" />
    <path
       d="m 1992.2369,1096.4059 c 4.8296,1.2941 7.8475,9.3497 5.777,17.0771 -2.0706,7.7274 -8.712,13.1948 -13.5416,11.9007 -5.7955,-1.5529 -7.8475,-9.3497 -5.777,-17.0771 2.0706,-7.7274 7.746,-13.4536 13.5416,-11.9007 z"
       id="path72"
       style="fill:#ff0000"
       inkscape:connector-curvature="0" />
    <path
       d="m 1999.3451,1077.605 c 3.8637,1.0353 16.0926,9.4884 28.0626,18.9074 16.7304,14.8357 27.6144,16.7168 52.4882,8.8878 l 31.4458,-9.1738 -32.0328,15.2282 -32.7399,14.0034 22.3872,24.6336 c 11.9006,13.5416 16.5916,23.0807 9.8301,21.269 -5.7956,-1.5529 -13.4536,-7.746 -14.7985,-14.318 -6.6735,-21.4584 -20.594,-15.8709 -32.9987,14.9693 l -12.146,29.8744 7.3163,-31.1685 c 7.1268,-34.325 0.6935,-41.2252 -25.7332,-27.6007 -9.2803,3.725 -6.3132,0.3789 6.7107,-9.5899 26.4961,-17.747 26.4961,-17.747 1.6594,-40.9664 -9.0722,-8.6426 -13.3149,-15.991 -9.4512,-14.9558 z"
       id="path74"
       style="fill:#ff0000"
       inkscape:connector-curvature="0" />
    <path
       d="m 1900.2632,1516.9304 c 4.8296,1.2941 8.3652,7.4178 7.0711,12.2475 -1.5529,5.7955 -7.4178,8.3651 -12.2475,7.071 -5.7955,-1.5529 -8.6239,-6.4519 -7.071,-12.2474 1.2941,-4.8297 6.4519,-8.624 12.2474,-7.0711 z"
       id="path76"
       style="fill:#ff0000"
       inkscape:connector-curvature="0" />
    <path
       d="m 1920.1316,1547.1007 c 9.9874,-2.5002 26.1171,-24.0602 36.1925,-46.2071 l 18.4083,-41.6549 -7.9033,37.2228 c -9.128,37.9299 -3.9194,45.5372 23.4733,32.1715 9.5391,-4.6909 7.7967,-2.052 -4.9684,6.951 -11.5403,8.2958 -19.7346,19.5587 -16.9062,24.4577 2.8285,4.899 -1.0352,3.8637 -9.6592,-2.5882 -7.9169,-5.2271 -22.9234,-7.1776 -32.4626,-2.4866 -10.505,4.4321 -19.2677,6.2252 -21.6478,3.5169 -1.1554,-3.4154 5.2271,-7.9169 15.4734,-11.3831 z"
       id="path78"
       style="fill:#ff0000"
       inkscape:connector-curvature="0" />
    <path
       d="m 2052.5082,1060.7918 c 5.7956,1.5529 11.2629,8.1942 12.8666,13.8003 1.3449,6.572 -3.5541,9.4005 -11.2815,7.3299 -8.6933,-2.3294 -14.4195,-8.0048 -12.8666,-13.8004 1.2941,-4.8296 6.4519,-8.6239 11.2815,-7.3298 z"
       id="path80"
       style="fill:#ff0000"
       inkscape:connector-curvature="0" />
    <path
       d="m 1945.2778,1580.7558 c 4.8296,1.2941 8.3652,7.4179 7.0711,12.2475 -1.5529,5.7955 -7.4178,8.3652 -12.2475,7.0711 -5.7955,-1.553 -8.624,-6.4519 -7.071,-12.2475 1.2941,-4.8296 6.4519,-8.624 12.2474,-7.0711 z"
       id="path82"
       style="fill:#ff0000"
       inkscape:connector-curvature="0" />
    <path
       d="m 2098.4887,1124.876 c 4.8297,1.2941 7.8476,9.3497 5.5182,18.043 -2.0706,7.7274 -7.9355,10.297 -11.9886,6.1052 -5.0191,-4.4507 -7.0711,-12.2475 -5.5182,-18.043 1.2941,-4.8297 6.1931,-7.6581 11.9886,-6.1052 z"
       id="path84"
       style="fill:#ff0000"
       inkscape:connector-curvature="0" />
    <path
       d="m 2006.5151,1545.4005 c 4.8296,1.2941 8.3651,7.4178 7.071,12.2475 -1.5529,5.7955 -7.4178,8.3651 -12.2474,7.071 -5.7956,-1.5529 -8.624,-6.4519 -7.0711,-12.2474 1.2941,-4.8297 6.4519,-8.624 12.2475,-7.0711 z"
       id="path86"
       style="fill:#ff0000"
       inkscape:connector-curvature="0" />
    <path
       d="m 2256.2107,1366.9458 c 7.8983,20.7513 9.123,20.0442 31.566,-1.8947 12.5756,-12.1595 17.4746,-14.9879 10.7639,-5.398 -6.7108,9.5899 -15.7508,27.8731 -19.3743,41.3961 -5.3659,16.1619 -13.4908,23.3023 -24.116,20.4553 -8.6933,-2.3294 -13.9712,-5.8141 -11.5217,-7.2283 2.4495,-1.4143 3.6928,-17.6455 3.2631,-35.3604 0.7443,-29.8235 1.0031,-30.7895 9.419,-11.97 z"
       id="path88"
       style="fill:#ff0000"
       inkscape:connector-curvature="0" />
    <path
       d="m 2276.0333,1327.7404 c 8.6933,2.3293 14.1607,8.9707 12.8666,13.8003 -1.5529,5.7956 -6.4519,8.624 -11.2815,7.3299 -5.7956,-1.5529 -11.5218,-7.2283 -12.8667,-13.8004 -1.6036,-5.606 3.5541,-9.4004 11.2816,-7.3298 z"
       id="path90"
       style="fill:#ff0000"
       inkscape:connector-curvature="0" />
    <path
       d="m 2250.7705,1445.2044 c 4.8297,1.2941 8.3652,7.4178 7.0711,12.2474 -1.5529,5.7956 -7.4178,8.3652 -12.2475,7.0711 -5.7955,-1.5529 -8.6239,-6.4519 -7.071,-12.2475 1.2941,-4.8296 6.4519,-8.6239 12.2474,-7.071 z"
       id="path92"
       style="fill:#ff0000"
       inkscape:connector-curvature="0" />
    <path
       d="m 2308.8004,1398.6369 c 8.6933,2.3293 14.1607,8.9707 12.8666,13.8003 -1.5529,5.7956 -6.4519,8.624 -11.2815,7.3299 -5.7956,-1.5529 -11.5218,-7.2283 -12.8666,-13.8004 -1.6037,-5.606 3.5541,-9.4004 11.2815,-7.3298 z"
       id="path94"
       style="fill:#ff0000"
       inkscape:connector-curvature="0" />
    <path
       d="m 524.07541,772.37674 c 25.202,-12.91739 34.2743,-4.27483 26.5097,24.70295 -6.2116,23.18222 -42.1961,57.02181 -56.685,53.13952 -16.4207,-4.39992 7.4228,-66.33929 30.1753,-77.84247 z"
       id="path96"
       style="fill:#ff0000"
       inkscape:connector-curvature="0" />
    <path
       d="m 284.25671,1632.6191 c 4.8296,1.2941 15.2467,16.5087 22.2484,32.8787 23.5748,54.9748 -5.0104,95.9734 -30.8452,45.5694 -14.5904,-26.6856 -7.824,-82.848 8.5968,-78.4481 z"
       id="path98"
       style="fill:#ff0000"
       inkscape:connector-curvature="0" />
    <path
       d="m 587.48971,694.12314 c 7.6767,-9.33108 24.8924,-23.3531 39.0717,-29.90653 25.202,-12.91739 25.202,-12.91739 15.8846,21.85594 -6.4705,24.14814 -16.1484,37.08412 -34.4502,43.5682 -37.8284,13.67526 -46.3137,-1.02168 -20.5061,-35.51761 z"
       id="path100"
       style="fill:#ff0000"
       inkscape:connector-curvature="0" />
    <path
       d="m 308.56571,1773.7186 c 17.3867,4.6588 38.9788,47.7143 38.7522,75.6061 -1.5901,36.8438 -25.997,31.3393 -43.7255,-10.681 -13.2963,-31.5152 -10.4815,-69.0662 4.9733,-64.9251 z"
       id="path102"
       style="fill:#ff0000"
       inkscape:connector-curvature="0" />
    <path
       d="m 458.81821,1421.609 c 21.0101,-8.8642 27.1152,3.1244 18.0566,36.9318 -10.6116,39.603 -38.0229,68.4928 -44.6964,47.0344 -7.1219,-23.6491 8.7862,-75.2915 26.6398,-83.9662 z"
       id="path104"
       style="fill:#ff0000"
       inkscape:connector-curvature="0" />
    <path
       d="m 420.27271,1550.0078 c 14.3688,-3.3969 30.8031,43.453 24.0738,68.5671 -2.847,10.6252 -10.593,24.0788 -17.4932,30.5121 -9.3496,7.8475 -13.6616,4.6216 -21.5599,-16.1297 -9.6915,-29.514 -2.0978,-77.1726 14.9793,-82.9495 z"
       id="path106"
       style="fill:#ff0000"
       inkscape:connector-curvature="0" />
    <path
       d="m 712.33071,583.67081 c 31.2056,-23.73205 56.1303,-20.15935 48.8833,6.88657 -5.694,21.25037 -57.7203,57.00323 -76.0729,52.08567 -16.4207,-4.39992 -1.3077,-37.62034 27.1896,-58.97224 z"
       id="path108"
       style="fill:#ff0000"
       inkscape:connector-curvature="0" />
    <path
       d="m 502.67371,1323.6208 c 6.9695,-10.5559 21.2182,-21.2318 30.7573,-25.9228 15.4041,-7.2605 18.043,-5.5181 18.7316,11.2308 1.0167,11.6605 -5.8328,29.4954 -14.2859,41.7243 -16.3885,22.5259 -54.3556,44.4462 -49.9557,28.0254 1.5529,-5.7955 2.2093,-15.9724 2.348,-24.2175 -1.0861,-7.5379 4.7281,-21.5091 12.4047,-30.8402 z"
       id="path110"
       style="fill:#ff0000"
       inkscape:connector-curvature="0" />
    <path
       d="m 365.40671,1913.1823 c 21.2504,5.694 57.0032,57.7203 52.0857,76.0729 -4.9176,18.3525 -42.1912,-0.9524 -58.9029,-31.3122 -21.472,-35.7764 -19.2628,-51.7488 6.8172,-44.7607 z"
       id="path112"
       style="fill:#ff0000"
       inkscape:connector-curvature="0" />
    <path
       d="m 423.00321,1690.5017 c 16.4208,4.3999 38.0637,58.8571 32.6285,79.1415 -7.5058,28.0119 -30.4292,20.8343 -42.5008,-11.388 -10.209,-27.5821 -3.6506,-71.377 9.8723,-67.7535 z"
       id="path114"
       style="fill:#ff0000"
       inkscape:connector-curvature="0" />
    <path
       d="m 607.23031,1207.7332 c 32.4303,-24.4391 46.2121,-21.7816 38.4476,7.1962 -7.247,27.0459 -42.455,57.9877 -61.7735,52.8113 -20.2845,-5.4352 -7.8797,-36.2754 23.3259,-60.0075 z"
       id="path116"
       style="fill:#ff0000"
       inkscape:connector-curvature="0" />
    <path
       d="m 829.26851,510.44129 c 39.1918,-22.62742 65.7895,-17.57115 48.8139,11.0091 -15.9402,24.71655 -34.3114,35.32315 -64.6526,36.51073 -32.2731,0.66994 -23.3531,-24.89241 15.8387,-47.51983 z"
       id="path118"
       style="fill:#ff0000"
       inkscape:connector-curvature="0" />
    <path
       d="m 467.28721,1826.6007 c 20.2844,5.4352 59.3833,60.4286 55.1729,80.0059 -3.8823,14.4889 -46.9515,-6.3689 -58.0063,-26.9308 -10.7961,-21.5277 -8.7577,-56.1809 2.8334,-53.0751 z"
       id="path120"
       style="fill:#ff0000"
       inkscape:connector-curvature="0" />
    <path
       d="m 449.14131,2025.6879 c 31.0483,0.037 68.3727,30.7437 66.0247,54.9612 -1.8996,26.4082 -45.297,10.6388 -69.9256,-24.9481 l -19.8683,-30.1704 23.7692,0.1573 z"
       id="path122"
       style="fill:#ff0000"
       inkscape:connector-curvature="0" />
    <path
       d="m 690.65161,1151.4049 c 16.3886,-22.5259 47.7143,-38.9788 66.0669,-34.0612 31.8756,8.541 2.842,47.3489 -45.6115,58.1772 -37.7591,9.5527 -40.5875,4.6537 -20.4554,-24.116 z"
       id="path124"
       style="fill:#ff0000"
       inkscape:connector-curvature="0" />
    <path
       d="m 951.98321,454.28885 c 38.933,-21.66149 68.75659,-20.91722 62.54499,2.265 -5.9529,22.2163 -49.97429,43.54962 -77.02029,36.30268 -30.9096,-8.28221 -28.6496,-12.85302 14.4753,-38.56768 z"
       id="path126"
       style="fill:#ff0000"
       inkscape:connector-curvature="0" />
    <path
       d="m 571.49571,1947.6981 c 29.9437,8.0234 65.4563,45.4914 54.1054,56.9439 -13.8004,12.8666 -61.5097,-6.1288 -73.0128,-28.8813 -15.487,-31.0669 -12.0023,-36.3448 18.9074,-28.0626 z"
       id="path128"
       style="fill:#ff0000"
       inkscape:connector-curvature="0" />
    <path
       d="m 581.11281,2039.3088 c 61.3016,18.4962 66.9584,28.2942 12.0208,20.8206 -28.0812,-3.3832 -45.9162,-10.2326 -51.573,-20.0306 -7.0711,-12.2474 1.174,-12.1087 39.5522,-0.79 z"
       id="path130"
       style="fill:#ff0000"
       inkscape:connector-curvature="0" />
    <path
       d="m 839.86251,1077.5055 c 27.6515,-14.3316 72.9299,-9.4463 68.2711,7.9404 -4.9175,18.3526 -51.578,37.9435 -75.7261,31.473 -29.9437,-8.0233 -27.545,-20.8392 7.455,-39.4134 z"
       id="path132"
       style="fill:#ff0000"
       inkscape:connector-curvature="0" />
    <path
       d="m 567.18731,2102.8704 c 23.7185,-11.2444 80.8282,11.3051 75.9106,29.6577 -2.5882,9.6592 -15.7322,12.349 -42.3298,7.2927 -43.536,-7.5243 -59.4899,-25.2578 -33.5808,-36.9504 z"
       id="path134"
       style="fill:#ff0000"
       inkscape:connector-curvature="0" />
    <path
       d="m 1079.509,414.95467 c 34.5517,-20.76492 75.5181,-19.10549 69.5652,3.11081 -6.2116,23.18222 -48.4214,37.75406 -76.3639,26.12578 l -26.2694,-10.14471 33.0681,-19.09188 z"
       id="path136"
       style="fill:#ff0000"
       inkscape:connector-curvature="0" />
    <path
       d="m 689.04261,2011.2883 c 22.6138,-3.2581 37.1027,0.6241 56.2825,14.0456 24.199,17.8721 23.9401,18.838 2.93,27.7022 -28.8069,10.9162 -72.2735,-0.7306 -82.1037,-21.9996 -5.8463,-12.9545 -0.6885,-16.7489 22.8912,-19.7482 z"
       id="path138"
       style="fill:#ff0000"
       inkscape:connector-curvature="0" />
    <path
       d="m 963.03911,1065.9937 c 23.9772,-12.2103 80.32909,-2.2873 85.14019,14.531 7.1218,23.6491 -71.60369,31.5424 -94.76729,9.8066 -11.4524,-11.3509 -10.6759,-14.2487 9.6271,-24.3376 z"
       id="path140"
       style="fill:#ff0000"
       inkscape:connector-curvature="0" />
    <path
       d="m 725.96451,2109.18 c 13.2134,-6.8123 34.0848,-7.4315 48.056,-1.6173 25.3036,9.8859 25.3036,9.8859 2.2229,26.4775 -30.4292,20.8342 -82.3489,21.4163 -76.9137,1.1318 2.0705,-7.7274 14.6462,-19.8869 26.6348,-25.992 z"
       id="path142"
       style="fill:#ff0000"
       inkscape:connector-curvature="0" />
    <path
       d="m 1231.7005,380.15911 c 40.6569,-8.77628 62.8732,-2.82345 58.2144,14.56322 -5.1764,19.31852 -49.5768,34.33864 -76.6227,27.09171 -31.8756,-8.54103 -21.0237,-33.58575 18.4083,-41.65493 z"
       id="path144"
       style="fill:#ff0000"
       inkscape:connector-curvature="0" />
    <path
       d="m 825.58491,2027.1692 c 17.1464,-9.8995 32.9988,-14.9694 34.1542,-11.554 5.9156,8.8321 -45.0754,40.7212 -54.6653,34.0105 -5.2779,-3.4848 3.6235,-13.523 20.5111,-22.4565 z"
       id="path146"
       style="fill:#ff0000"
       inkscape:connector-curvature="0" />
    <path
       d="m 1108.4642,1087.3605 c 31.8248,-2.8606 82.552,24.1903 77.8932,41.577 -5.694,21.2503 -72.4122,7.5143 -94.2818,-19.0511 -13.7632,-18.1817 -13.5044,-19.1477 16.3886,-22.5259 z"
       id="path148"
       style="fill:#ff0000"
       inkscape:connector-curvature="0" />
    <path
       d="m 877.03781,2039.9207 c 39.8296,-17.2802 51.4021,1.3498 20.7649,34.5516 -19.0275,20.7835 -43.7119,31.7691 -61.0985,27.1103 -1.9319,-0.5176 -1.0167,-11.6604 2.3479,-24.2175 3.8823,-14.4889 19.1662,-29.0285 37.9857,-37.4444 z"
       id="path150"
       style="fill:#ff0000"
       inkscape:connector-curvature="0" />
    <path
       d="m 1359.6374,374.06393 c 27.5822,-10.20908 81.0363,-1.06248 77.154,13.4264 -3.8823,14.48889 -51.1805,28.73256 -75.3286,22.26209 -30.9097,-8.28221 -31.5982,-25.03112 -1.8254,-35.68849 z"
       id="path152"
       style="fill:#ff0000"
       inkscape:connector-curvature="0" />
    <path
       d="m 1228.2712,1146.3799 c 28.6682,-2.6712 41.4147,3.8501 63.4737,33.5721 17.5575,23.3395 18.4541,27.7209 2.8606,31.8248 -22.1655,5.4488 -58.2144,-14.5632 -72.546,-42.2147 -10.3478,-19.3371 -9.8301,-21.269 6.2117,-23.1822 z"
       id="path154"
       style="fill:#ff0000"
       inkscape:connector-curvature="0" />
    <path
       d="m 1502.2527,375.00763 c 27.5128,-6.08656 72.1348,8.97571 72.8234,25.72462 1.3956,17.97365 -51.1112,24.61004 -76.3453,10.60162 -27.8732,-15.7508 -26.4404,-28.82547 3.5219,-36.32624 z"
       id="path156"
       style="fill:#ff0000"
       inkscape:connector-curvature="0" />
    <path
       d="m 1335.6734,1236.2395 c 22.355,-2.2922 59.9382,27.4484 65.5765,52.7706 10.8976,44.331 -42.6073,23.7828 -68.4421,-26.6212 -11.0549,-20.5619 -9.7608,-25.3915 2.8656,-26.1494 z"
       id="path158"
       style="fill:#ff0000"
       inkscape:connector-curvature="0" />
    <path
       d="m 1636.2761,396.42524 c 28.6682,-2.67115 72.3244,12.13231 76.9459,25.79397 5.2594,19.00893 -24.1853,24.57785 -60.114,11.84495 -34.9628,-12.47408 -44.5341,-34.70896 -16.8319,-37.63892 z"
       id="path160"
       style="fill:#ff0000"
       inkscape:connector-curvature="0" />
    <path
       d="m 1441.176,1352.5073 c 25.1141,6.7293 55.968,61.584 42.1676,74.4506 -12.3168,11.1936 -23.1315,5.19 -46.7941,-30.1381 -27.7159,-39.52 -26.2831,-52.5947 4.6265,-44.3125 z"
       id="path162"
       style="fill:#ff0000"
       inkscape:connector-curvature="0" />
    <path
       d="m 1772.4717,432.91872 c 27.7022,-2.92996 58.8013,8.50885 75.2035,28.43293 13.7632,18.18171 13.5044,19.14763 -16.3886,22.52588 -23.3209,2.03339 -37.8098,-1.84889 -55.7648,-15.97743 -26.5791,-20.58042 -28.5617,-32.4997 -3.0501,-34.98138 z"
       id="path164"
       style="fill:#ff0000"
       inkscape:connector-curvature="0" />
    <path
       d="m 1509.6452,1464.0285 c 22.2163,5.9528 37.6526,25.6181 43.4803,54.0968 8.328,38.4661 8.2587,42.5886 -9.128,37.9299 -21.2504,-5.694 -53.3983,-55.7191 -47.9631,-76.0035 2.5881,-9.6593 8.7812,-17.3173 13.6108,-16.0232 z"
       id="path166"
       style="fill:#ff0000"
       inkscape:connector-curvature="0" />
    <path
       d="m 1567.919,1590.4174 c 16.8183,-4.811 47.8294,26.2745 51.9841,53.2696 4.7925,32.3424 -3.3324,39.4829 -28.049,23.5426 -19.4386,-12.4555 -38.3039,-73.4154 -23.9351,-76.8122 z"
       id="path168"
       style="fill:#ff0000"
       inkscape:connector-curvature="0" />
    <path
       d="m 1892.6068,486.84964 c 15.6629,-8.22646 80.3106,13.23694 88.2782,29.86573 9.5714,22.23487 -3.1244,27.11527 -39.8296,17.28015 -31.8755,-8.54103 -63.1455,-38.6606 -48.4486,-47.14588 z"
       id="path170"
       style="fill:#ff0000"
       inkscape:connector-curvature="0" />
    <path
       d="m 1649.4443,1718.8955 c 22.2163,5.9528 49.4146,47.4047 43.7205,68.6551 -5.9528,22.2163 -31.7046,10.1397 -50.5377,-23.8943 -21.472,-35.7765 -19.2628,-51.7489 6.8172,-44.7608 z"
       id="path172"
       style="fill:#ff0000"
       inkscape:connector-curvature="0" />
    <path
       d="m 2036.183,546.02629 c 37.1027,0.62415 86.069,45.83817 63.0576,58.30728 -14.9557,9.4512 -58.0249,-11.40662 -71.7187,-33.71085 -14.1421,-24.4949 -14.1421,-24.4949 8.6611,-24.59643 z"
       id="path174"
       style="fill:#ff0000"
       inkscape:connector-curvature="0" />
    <path
       d="m 1722.7432,1831.7107 c 21.2504,5.6941 50.778,38.4526 54.7432,62.2911 3.2581,22.6139 1.5158,25.2528 -13.939,21.1117 -23.1823,-6.2117 -59.0045,-54.1154 -54.0869,-72.468 2.0705,-7.7274 7.4872,-12.4877 13.2827,-10.9348 z"
       id="path176"
       style="fill:#ff0000"
       inkscape:connector-curvature="0" />
    <path
       d="m 2168.0108,625.86632 c 28.0119,7.50575 63.3351,41.81719 58.9351,58.23793 -4.3999,16.42073 -66.3393,-7.4228 -77.8424,-30.17532 -15.487,-31.06691 -12.0023,-36.34482 18.9073,-28.06261 z"
       id="path178"
       style="fill:#ff0000"
       inkscape:connector-curvature="0" />
    <path
       d="m 1802.6141,1943.1811 c 16.8876,-8.9336 52.0399,6.6971 69.0798,31.9685 15.8845,21.8559 15.8152,25.9784 0.9287,31.3071 -9.0215,2.7591 -24.9939,0.5498 -34.8426,-5.195 -23.0436,-14.4567 -46.1886,-51.7166 -35.1659,-58.0806 z"
       id="path180"
       style="fill:#ff0000"
       inkscape:connector-curvature="0" />
    <path
       d="m 2279.9839,717.98598 c 17.3867,4.65874 35.3418,18.78727 44.2753,35.67488 l 16.5223,27.20321 -27.8224,-4.34916 c -29.0471,-3.64205 -68.9411,-40.2135 -64.5411,-56.63424 1.5529,-5.79556 15.1452,-6.29461 31.5659,-1.89469 z"
       id="path182"
       style="fill:#ff0000"
       inkscape:connector-curvature="0" />
    <path
       d="m 1945.6541,2019.8138 c 34.912,1.0724 75.5317,23.3444 65.595,37.2463 -3.7436,6.2439 -24.3562,5.8971 -48.5043,-0.5733 -47.3304,-12.6822 -58.3159,-37.3665 -17.0907,-36.673 z"
       id="path184"
       style="fill:#ff0000"
       inkscape:connector-curvature="0" />
    <path
       d="m 2376.8118,816.40025 c 19.3185,5.17638 32.4439,18.01082 42.0152,40.2457 14.2623,31.77401 14.2623,31.77401 -5.8327,29.49541 -27.1153,-3.12441 -53.625,-27.82736 -59.7115,-55.34015 -5.0005,-19.97486 -1.5851,-21.13025 23.529,-14.40096 z"
       id="path186"
       style="fill:#ff0000"
       inkscape:connector-curvature="0" />
    <path
       d="m 2082.3673,2054.3754 c 35.1894,-15.4176 48.2641,-13.9849 65.1839,4.0074 25.4744,28.5666 -55.6498,49.2758 -83.5737,22.1234 -11.4524,-11.3509 -8.4853,-14.697 18.3898,-26.1308 z"
       id="path188"
       style="fill:#ff0000"
       inkscape:connector-curvature="0" />
    <path
       d="m 2457.5284,920.85032 c 19.3186,5.17638 53.6572,54.75316 49.2573,71.1739 -5.694,21.25038 -37.2414,7.62089 -53.6943,-23.70483 -17.4189,-31.58455 -15.8474,-52.90427 4.437,-47.46907 z"
       id="path190"
       style="fill:#ff0000"
       inkscape:connector-curvature="0" />
    <path
       d="m 2230.7459,2029.9462 c 26.4267,-13.6245 72.9299,-9.4462 68.5299,6.9745 -3.3646,12.5571 -72.7775,43.6512 -89.1983,39.2512 -20.2844,-5.4352 -9.6914,-29.5139 20.6684,-46.2257 z"
       id="path192"
       style="fill:#ff0000"
       inkscape:connector-curvature="0" />
    <path
       d="m 2533.0688,1044.6189 c 20.2844,5.4352 47.5334,58.2887 41.8394,79.5391 -4.4,16.4207 -6.3318,15.9031 -32.652,-5.6433 -11.9701,-9.419 -23.2838,-29.0149 -25.4559,-44.0908 -6.2067,-34.7919 -4.9819,-35.499 16.2685,-29.805 z"
       id="path194"
       style="fill:#ff0000"
       inkscape:connector-curvature="0" />
    <path
       d="m 2340.6262,1986.9192 c 16.3885,-22.5259 46.7483,-39.2376 65.1009,-34.3201 15.4548,4.1412 15.3855,8.2637 -1.0031,30.7896 -17.165,25.4236 -45.7824,39.4964 -67.9987,33.5436 -11.5911,-3.1059 -11.0041,-9.1602 3.9009,-30.0131 z"
       id="path196"
       style="fill:#ff0000"
       inkscape:connector-curvature="0" />
    <path
       d="m 2586.7024,1172.8704 c 18.3525,4.9175 41.9273,59.8923 35.7156,83.0746 -6.7292,25.114 -21.6664,19.0411 -41.9137,-17.4424 -19.3507,-32.1022 -15.0523,-71.3263 6.1981,-65.6322 z"
       id="path198"
       style="fill:#ff0000"
       inkscape:connector-curvature="0" />
    <path
       d="m 2618.4292,1305.6047 c 13.523,3.6235 36.3213,61.4961 31.1449,80.8146 -7.2469,27.0459 -19.6145,26.8379 -37.8098,-1.8489 -16.7811,-26.2373 -11.6876,-83.8833 6.6649,-78.9657 z"
       id="path200"
       style="fill:#ff0000"
       inkscape:connector-curvature="0" />
    <path
       d="m 2482.2347,1860.2542 c 21.0795,-12.9868 27.3927,-13.3657 31.3071,-0.9288 7.829,24.8739 -39.1968,80.6016 -64.3109,73.8723 -16.4207,-4.3999 7.9912,-56.8695 33.0038,-72.9435 z"
       id="path202"
       style="fill:#ff0000"
       inkscape:connector-curvature="0" />
    <path
       d="m 2632.7509,1449.2045 c 15.8523,-5.0699 23.8843,65.4105 10.1347,89.6788 -10.2648,18.9903 -12.1966,18.4727 -24.4763,-1.3821 -14.6597,-22.563 -4.9262,-82.0715 14.3416,-88.2967 z"
       id="path204"
       style="fill:#ff0000"
       inkscape:connector-curvature="0" />
    <path
       d="m 2565.3514,1735.516 24.5643,-18.2646 -0.4855,28.8576 c -0.2266,27.8918 -32.1765,81.4474 -46.6654,77.5651 -9.6592,-2.5882 -12.5892,-30.2905 -6.3775,-53.4727 2.5881,-9.6592 15.9402,-24.7165 28.9641,-34.6854 z"
       id="path206"
       style="fill:#ff0000"
       inkscape:connector-curvature="0" />
    <path
       d="m 2603.2591,1601.77 c 15.8709,-20.5941 16.8369,-20.3352 25.7011,0.6749 9.0537,24.1667 3.4104,56.8187 -12.9781,79.3446 -14.6462,19.8869 -23.529,14.401 -28.5803,-16.9755 -5.7584,-32.6013 -5.2407,-34.5331 15.8573,-63.044 z"
       id="path208"
       style="fill:#ff0000"
       inkscape:connector-curvature="0" />
  </g>
</svg>
