<svg xmlns="http://www.w3.org/2000/svg" xmlns:xlink="http://www.w3.org/1999/xlink" version="1.1" width="317pt" height="382pt" viewBox="0 0 317 382" id="bob">
	<a id="bob">
	<path fill="none" stroke="#000000" stroke-width="8.50" stroke-linecap="round" stroke-linejoin="round" d="M54.200 31.846L60.745 25.2 248.6 25.2 255.8 31.8 263 38.2 263 184.7 255.8 191.4 248.6 198 61.4 198 54.2 191.4 47 184.7 47 38.5 Z"/>
	<path fill="none" stroke="#000000" stroke-width="8.50" stroke-linecap="round" stroke-linejoin="round" d="M83.000 205.200L119.000 205.2 119 328.4 83 328.4 Z"/>
	<path fill="none" stroke="#000000" stroke-width="8.50" stroke-linecap="round" stroke-linejoin="round" d="M191.000 205.200L227.000 205.2 227 328.4 191 328.4 Z"/>
	<path fill="none" stroke="#000000" stroke-width="8.50" stroke-linecap="round" stroke-linejoin="round" d="M119.000 334.000L25.400 334 25.4 356.4 119 356.4 Z"/>
	<path fill="none" stroke="#000000" stroke-width="8.50" stroke-linecap="round" stroke-linejoin="round" d="M191.000 334.000L291.800 334 291.8 356.4 191 356.4 Z"/>
	<path fill="none" stroke="#000000" stroke-width="8.50" stroke-linecap="round" stroke-linejoin="round" d="M83.000 270.000L68.600 270 68.6 277.2 61.4 277.2 61.4 306 83 306 Z"/>
	<ellipse id="left-eye" fill="none" stroke="#000000" stroke-width="8.50" stroke-linecap="round" stroke-linejoin="round" cx="108.2" cy="86.4" rx="25.2" ry="25.2"/>
	<ellipse id="right-eye" fill="none" stroke="#000000" stroke-width="8.50" stroke-linecap="round" stroke-linejoin="round" cx="201.8" cy="86.4" rx="25.2" ry="25.2"/>
	<path fill="none" stroke="#000000" stroke-width="8.50" stroke-linecap="round" stroke-linejoin="round" d="M75.800 147.600L83.000 147.6 227 147.6 234.2 147.6 241.4 154.8 241.4 162 234.2 169.2 227 169.2 83 169.2 75.8 169.2 68.6 162 68.6 154.8 Z"/>
	<path fill="none" stroke="#000000" stroke-width="8.50" stroke-linecap="round" stroke-linejoin="round" d="M90.200 147.600L90.200 169.2 "/>
	<path fill="none" stroke="#000000" stroke-width="8.50" stroke-linecap="round" stroke-linejoin="round" d="M111.800 147.600L111.800 169.2 "/>
	<path fill="none" stroke="#000000" stroke-width="8.50" stroke-linecap="round" stroke-linejoin="round" d="M133.400 147.600L133.400 169.2 "/>
	<path fill="none" stroke="#000000" stroke-width="8.50" stroke-linecap="round" stroke-linejoin="round" d="M158.500 147.600L158.500 169.2 "/>
	<path fill="none" stroke="#000000" stroke-width="8.50" stroke-linecap="round" stroke-linejoin="round" d="M176.600 147.600L176.600 169.2 "/>
	<path fill="none" stroke="#000000" stroke-width="8.50" stroke-linecap="round" stroke-linejoin="round" d="M198.200 147.600L198.200 169.2 "/>
	<path fill="none" stroke="#000000" stroke-width="8.50" stroke-linecap="round" stroke-linejoin="round" d="M219.800 147.600L219.800 169.2 "/>
	<path fill="none" stroke="#000000" stroke-width="8.50" stroke-linecap="round" stroke-linejoin="round" d="M227.000 270.000L241.400 270 241.4 277.2 248.6 277.2 248.6 306 227 306 Z"/>
	</a>
</svg>
