<?xml version="1.0" standalone="no"?>
<!DOCTYPE svg PUBLIC "-//W3C//DTD SVG 20010904//EN"
 "http://www.w3.org/TR/2001/REC-SVG-20010904/DTD/svg10.dtd">
<svg version="1.0" xmlns="http://www.w3.org/2000/svg"
 width="1366.000000pt" height="767.000000pt" viewBox="0 0 1366.000000 767.000000"
 preserveAspectRatio="xMidYMid meet">
<metadata>
Created by potrace 1.12, written by Peter Selinger 2001-2015
</metadata>
<g transform="translate(0.000000,767.000000) scale(0.100000,-0.100000)"
fill="#000000" stroke="none">
<path d="M1637 6816 c-66 -24 -111 -61 -142 -117 l-30 -54 -3 -778 c-1 -496 1
-792 8 -815 17 -67 62 -125 121 -157 l54 -30 298 -3 297 -3 0 -2145 0 -2144
100 0 100 0 0 2144 0 2145 313 3 312 3 54 30 c58 32 103 90 121 155 13 47 13
1543 0 1590 -18 65 -63 123 -121 155 l-54 30 -695 2 c-567 2 -702 0 -733 -11z
m1415 -233 l48 -47 0 -629 0 -629 -41 -49 -41 -49 -647 0 -647 0 -42 43 -42
43 0 644 0 644 37 38 37 38 645 0 645 0 48 -47z"/>
<path d="M1740 6139 c0 -12 7 -27 15 -33 13 -10 11 -33 -10 -186 -14 -96 -25
-178 -25 -182 0 -5 45 -8 100 -8 l100 0 0 31 c0 35 47 89 78 89 33 0 82 -21
92 -40 6 -10 10 -32 10 -49 l0 -31 305 0 305 0 0 31 c0 35 47 89 78 89 33 0
82 -21 92 -40 6 -10 10 -32 10 -49 l0 -31 60 0 60 0 0 103 c0 70 -6 124 -19
172 -11 39 -24 89 -31 113 l-11 42 -604 0 -605 0 0 -21z m140 -134 l0 -105
-56 0 c-55 0 -56 0 -50 28 3 15 8 50 11 77 13 106 13 105 56 105 l39 0 0 -105z
m240 20 l0 -85 -95 0 -95 0 0 85 0 85 95 0 95 0 0 -85z m240 0 l0 -85 -95 0
-95 0 0 85 0 85 95 0 95 0 0 -85z m230 0 l0 -85 -95 0 -95 0 0 85 0 85 95 0
95 0 0 -85z m240 0 l0 -85 -100 0 -100 0 0 85 0 85 100 0 100 0 0 -85z"/>
<path d="M1984 5830 c-32 -13 -54 -50 -54 -91 0 -47 29 -74 80 -74 54 0 80 27
80 82 0 41 -25 83 -49 83 -5 0 -15 2 -23 4 -7 3 -23 1 -34 -4z"/>
<path d="M2774 5830 c-32 -13 -54 -50 -54 -91 0 -47 29 -74 80 -74 54 0 80 27
80 82 0 41 -25 83 -49 83 -5 0 -15 2 -23 4 -7 3 -23 1 -34 -4z"/>
<path d="M9597 4204 c-2 -2 -14 -6 -28 -8 -13 -2 -25 -5 -26 -7 -2 -1 -7 -2
-12 -3 -18 -2 -21 -14 -11 -42 l10 -29 -19 25 c-17 21 -22 23 -45 12 -22 -10
-25 -16 -20 -44 6 -32 6 -32 -9 -13 -16 20 -17 20 -44 -10 -43 -46 -65 -85
-60 -106 3 -10 1 -19 -3 -19 -14 0 -30 -61 -30 -116 0 -69 18 -149 36 -165 8
-6 14 -19 14 -28 0 -17 26 -48 76 -91 79 -69 163 -95 274 -87 41 3 86 10 100
16 57 26 113 62 131 86 12 14 27 31 34 38 47 48 80 164 71 255 -5 52 -11 93
-16 100 -2 1 -3 6 -4 12 0 5 -7 15 -13 22 -7 6 -13 18 -13 26 0 16 -91 109
-131 134 -40 25 -140 48 -203 47 -30 -1 -57 -3 -59 -5z"/>
<path d="M10158 3988 c-14 -24 -41 -68 -61 -99 -20 -31 -34 -59 -31 -61 4 -4
223 41 232 48 7 5 -46 101 -69 128 -31 36 -43 33 -71 -16z"/>
<path d="M10233 3715 c-86 -19 -153 -57 -218 -126 -64 -67 -99 -136 -115 -228
-19 -106 12 -235 77 -319 28 -37 26 -50 -24 -118 -13 -17 -23 -34 -23 -39 0
-4 -15 -28 -34 -54 -18 -25 -35 -50 -37 -56 -2 -5 -20 -33 -39 -62 l-35 -52
-243 -80 c-134 -45 -247 -81 -252 -81 -6 0 -10 20 -10 43 0 51 -28 138 -64
200 -27 46 -137 157 -155 157 -8 0 -11 101 -11 329 l0 328 -37 7 c-21 3 -1180
6 -2575 6 l-2538 0 0 -330 c0 -286 -2 -330 -15 -331 -8 -1 -18 -2 -22 -3 -5
-1 -24 -6 -43 -10 -68 -17 -175 -73 -218 -116 -36 -36 -42 -49 -42 -83 0 -26
8 -53 22 -73 31 -45 125 -99 230 -131 l88 -27 0 -48 c0 -40 -3 -48 -19 -48
-35 0 -189 -56 -243 -89 -68 -41 -98 -84 -98 -139 0 -36 6 -48 43 -85 41 -40
105 -78 154 -92 21 -6 20 -8 -21 -63 -24 -31 -93 -127 -154 -212 l-112 -155 1
-60 c0 -33 4 -80 9 -105 6 -25 14 -65 19 -90 5 -25 19 -90 31 -145 37 -165 36
-161 79 -360 11 -49 22 -102 26 -117 l7 -28 -61 0 c-54 0 -61 -2 -61 -20 0
-20 7 -20 270 -20 263 0 270 0 270 20 0 18 -7 20 -60 20 -33 0 -60 1 -60 3 0
1 7 34 15 72 9 39 20 93 26 120 6 28 15 66 19 85 4 19 13 58 19 85 6 28 20 93
32 145 21 94 32 148 47 225 l7 40 2386 3 2386 2 8 -32 c4 -18 15 -71 25 -118
10 -47 28 -130 40 -185 75 -336 80 -359 87 -407 l5 -38 -56 0 c-49 0 -56 -2
-56 -20 0 -19 7 -20 265 -20 258 0 265 1 265 20 0 18 -7 20 -55 20 -30 0 -55
2 -55 4 0 5 37 189 50 246 4 19 17 78 28 130 12 52 31 138 42 190 12 52 26
115 31 140 6 25 13 77 16 115 4 63 2 73 -21 105 -14 19 -51 73 -82 120 -32 47
-72 103 -89 125 -30 37 -32 44 -28 96 4 42 1 63 -11 81 -15 24 -15 25 6 35 13
5 187 63 388 129 l365 119 65 65 c36 36 72 79 80 95 8 17 29 51 47 76 18 26
33 49 33 53 0 3 17 29 37 57 l37 52 50 -59 c28 -32 88 -99 133 -148 l82 -90
-97 -24 c-379 -93 -404 -103 -473 -181 -72 -82 -72 -83 -54 -640 18 -567 18
-565 99 -647 113 -112 269 -112 382 1 85 85 88 102 75 478 -14 400 -14 427 2
431 89 23 167 41 237 57 47 10 126 29 175 43 58 15 92 20 96 14 4 -6 14 -58
23 -117 9 -58 28 -171 41 -251 14 -80 25 -159 25 -175 0 -54 61 -350 81 -392
30 -63 128 -149 191 -168 78 -23 1059 -22 1138 1 103 30 190 149 190 259 0 96
-68 203 -158 247 -46 23 -52 23 -467 28 l-420 5 -7 70 c-3 39 -16 117 -27 175
-12 58 -21 119 -21 135 0 17 -9 77 -20 135 -12 58 -25 144 -30 192 -9 76 -7
91 9 130 32 72 44 165 31 239 -22 125 -52 169 -270 403 -127 137 -230 252
-315 352 -190 223 -436 476 -496 508 -48 27 -161 56 -209 55 -14 0 -53 -7 -87
-14z m-4156 -589 c-22 -13 -71 -29 -115 -36 -42 -7 -129 -24 -192 -37 -63 -14
-119 -25 -125 -25 -5 -1 -364 0 -797 0 l-788 2 0 60 0 60 1028 0 1027 -1 -38
-23z m2821 -38 l3 -58 -686 -2 c-377 -2 -685 -1 -685 2 0 3 -18 16 -40 30 -22
14 -40 28 -40 32 0 5 -6 8 -12 8 -7 0 -26 11 -42 25 l-29 25 764 -2 764 -3 3
-57z m-4021 -548 l-21 -60 -180 1 c-100 1 -172 3 -161 6 46 10 133 49 180 79
46 31 57 34 126 34 l77 0 -21 -60z m4443 -835 c0 -13 -323 -15 -2850 -15
-1567 0 -2850 4 -2850 8 0 5 3 12 7 15 3 4 1286 7 2850 7 2520 0 2843 -2 2843
-15z"/>
</g>
</svg>
